<?xml version="1.0" encoding="UTF-8"?>
<svg width="197px" height="103px" viewBox="0 0 197 103" version="1.1" xmlns="http://www.w3.org/2000/svg" xmlns:xlink="http://www.w3.org/1999/xlink">
    <!-- Generator: Sketch 44.1 (41455) - http://www.bohemiancoding.com/sketch -->
    <title>password_sent</title>
    <desc>Created with Sketch.</desc>
    <defs></defs>
    <g id="Page-1" stroke="none" stroke-width="1" fill="none" fill-rule="evenodd">
        <g id="password_sent" transform="translate(1.000000, 1.000000)">
            <path d="M75,38 L87,75" id="Line" stroke="#BABABA" stroke-width="1.5" stroke-linecap="square"></path>
            <path d="M118,39 L132,74" id="Line-Copy-2" stroke="#BABABA" stroke-width="1.5" stroke-linecap="square" transform="translate(125.000000, 56.500000) scale(-1, 1) translate(-125.000000, -56.500000) "></path>
            <path d="M95,58 L97,74" id="Line-Copy-5" stroke="#BABABA" stroke-width="1.5" stroke-linecap="square"></path>
            <path d="M112,58 L110,74" id="Line-Copy-6" stroke="#BABABA" stroke-width="1.5" stroke-linecap="square"></path>
            <path d="M104,60 C120.568542,60 134,46.5685425 134,30 C134,13.4314575 120.568542,0 104,0 C87.4314575,0 74,13.4314575 74,30 C74,46.5685425 87.4314575,60 104,60 Z" id="Oval-2" stroke="#3A9E47" stroke-width="1.5" fill="#FFFFFF" fill-rule="nonzero"></path>
            <g id="noun_131285_cc" transform="translate(90.000000, 19.000000)">
                <path d="M26.6350976,1.16065062 C26.0092325,0.521734773 25.178438,1.77635684e-15 24.2991806,1.77635684e-15 L24.2887957,1.77635684e-15 C23.4261541,1.77635684e-15 22.6154372,0.504297114 22.0048032,1.11880024 L8.98902351,14.3986242 L5.62499831,11.0087432 C5.00605645,10.3851725 4.18080063,10.0419994 3.29808152,10.0419994 C2.42436269,10.0419994 1.59633755,10.3823825 0.956625827,11.0115332 C-0.320028313,12.3130801 -0.318643655,14.4209444 0.959395142,15.7078437 L6.5001018,21.2892898 C6.55964207,21.3492753 6.61918234,21.4064708 6.66279905,21.4378586 C6.74310918,21.5090043 6.82480397,21.5780574 6.88988286,21.6268829 C6.91272971,21.6457155 6.93696122,21.6652457 6.96188505,21.6819859 C7.56698034,22.1841905 8.29600247,22.4311077 9.02156296,22.4311077 C9.84404947,22.4311077 10.6630743,22.0914221 11.2896318,21.4587838 L26.6724834,5.94205686 C27.280348,5.32755374 27.6154351,4.46822588 27.6154351,3.5963429 C27.6154351,2.71608985 27.2658091,1.79677644 26.6350976,1.16065062 L26.6350976,1.16065062 Z M25.6921459,4.99763322 L10.3099867,20.493435 C9.65227441,21.156066 8.62001231,21.2132616 7.8480658,20.6106161 C7.83006525,20.5952709 7.79060251,20.5429579 7.78991019,20.5429579 C7.78921786,20.5415629 1.93904027,14.6992495 1.93904027,14.6992495 C1.19755622,13.9522201 1.19894088,12.7225164 1.93142465,11.974092 C2.6729087,11.2451979 3.93433161,11.2319453 4.64535319,11.9489818 L8.98902351,16.2860765 L22.983756,2.10437675 C23.3326897,1.75422855 23.7958576,1.39431526 24.2887957,1.39431526 L24.2950266,1.39431526 C24.8025036,1.39431526 25.2850567,1.76748117 25.6526832,2.14343711 C26.0251561,2.51799804 26.2307777,3.17156151 26.2307777,3.67864865 C26.2307777,4.17945824 26.0390026,4.64748502 25.6921459,4.99763322 L25.6921459,4.99763322 Z" id="Shape" fill="#3A9E47" fill-rule="nonzero"></path>
                <path d="M7.97126681,19.1839301 L8.5009697,19.6652413" id="Shape"></path>
            </g>
            <g id="Rectangle-141-+-Shape-+-Line" transform="translate(84.000000, 74.000000)">
                <path d="M4.22222222,7.64773269 L4.22222222,6.61166571 C4.22222222,4.40321017 6.01823081,2.61290323 8.2143792,2.61290323 L28.9411764,2.61290323 C31.1459838,2.61290323 32.9333333,4.40325874 32.9333333,6.61098361 L32.9333333,7.608504 L32.9333333,22.998892 C32.9333333,25.2086429 31.1373247,27 28.9411764,27 L8.2143792,27 C6.00957178,27 4.22222222,25.2117893 4.22222222,22.9964954 L4.22222222,7.64773269 Z" id="Rectangle-141" stroke="#BABABA" stroke-width="1.5"></path>
                <rect id="Rectangle-183" stroke="#BABABA" stroke-width="1.5" fill="#FFFFFF" fill-rule="nonzero" x="0.844444444" y="0" width="35.4666667" height="5.22580645" rx="2.61290322"></rect>
                <path d="M27.0222222,10.5026166 C27.0222222,10.1488795 26.8370393,9.86214903 26.655013,9.58384574 L26.3974404,9.29526537 C26.0639008,8.96167139 25.7004794,8.70967742 25.1863865,8.70967742 L11.969169,8.70967742 C11.4550761,8.70967742 11.1482618,8.84225174 10.8147221,9.17584571 C10.8079882,9.18262858 10.5003321,9.58405128 10.5003321,9.58405128 C10.3187266,9.86235457 10.1333333,10.1490851 10.1333333,10.5028221 L10.1333333,19.1094645 C10.1333333,19.475534 10.2467578,19.816322 10.4403581,20.100586 L10.4283633,20.1120963 L10.4805512,20.15526 C10.8140908,20.6072459 11.3561716,20.9032258 11.9689586,20.9032258 L25.1863865,20.9032258 C25.8063283,20.9032258 26.3538804,20.6010797 26.6861574,20.1406666 L26.7206687,20.1120963 L26.7128826,20.1044912 C26.9081664,19.8194051 27.0222222,19.4773839 27.0222222,19.1094645 L27.0222222,10.5026166 L27.0222222,10.5026166 Z M11.969169,9.42660643 L25.1865969,9.42660643 C25.3570494,9.42660643 25.4626878,9.54273742 25.5994706,9.60604423 L18.5774621,16.46435 L11.5558745,9.60604423 C11.6928678,9.54273742 11.7982958,9.42660643 11.969169,9.42660643 L11.969169,9.42660643 Z M21.5582752,15.0687227 L21.0298726,15.5620224 L25.5498079,19.9768499 C25.4163921,20.0372792 25.2878162,20.1560822 25.160503,20.1560822 L11.9887395,20.1560822 C11.8616367,20.1560822 11.7328504,20.0372792 11.5985929,19.9768499 L16.1191594,15.5620224 L15.6141152,15.0687227 L10.9807554,19.5746051 C10.9104701,19.4331925 10.8675414,19.2765698 10.8675414,19.1090534 L10.8675414,10.5026166 C10.8675414,10.3470216 10.9668667,10.232946 11.0281033,10.0995495 L18.5774621,17.4733535 L26.1274522,10.0995495 C26.1886888,10.232946 26.2875933,10.3472271 26.2875933,10.5026166 L26.2875933,19.1092589 C26.2875933,19.2773919 26.2442437,19.4348368 26.1733271,19.576866 L21.5582752,15.0687227 L21.5582752,15.0687227 Z" id="Shape" stroke="#3A9E47" stroke-width="0.2" fill="#3A9E47" fill-rule="nonzero"></path>
            </g>
            <g id="cloud" transform="translate(153.000000, 17.000000)" stroke="#BABABA" stroke-width="0.6" fill="#BABABA" fill-rule="nonzero">
                <path d="M39.1052432,8.72814229 C39.4323333,8.38699234 39.6073086,7.99886987 39.6073086,7.59972323 C39.6073086,6.29084339 37.7999722,5.26559613 35.4926711,5.26559613 C35.3002725,5.26559613 35.1070088,5.27314529 34.9151045,5.2882436 C34.7351864,4.13070637 33.1251915,3.24122408 31.0641656,3.17519892 C31.031296,1.39168089 28.5299899,0 25.342499,0 C22.1340011,0 19.6205852,1.41037404 19.6205852,3.2107878 C19.6205852,3.40922276 19.6524663,3.60657926 19.7157342,3.80046075 C19.1496595,3.78943659 18.6100288,3.86121348 18.0968422,4.01183712 C17.5785892,3.87523335 17.0096724,3.82286857 16.4355657,3.86121348 C16.2576247,3.02757099 15.1094113,2.39104534 13.6326249,2.32537966 C13.5539108,1.01661966 11.7188947,0.00395431974 9.39021601,0.00395431974 C7.00988503,0.00395431974 5.14521212,1.06215425 5.14521212,2.41297384 C5.14521212,2.53567758 5.16115266,2.65778218 5.19278661,2.77820919 C3.54250783,2.78072557 2.20078361,3.76463222 2.20078361,4.97393509 C2.20078361,5.18710888 2.24156174,5.39560937 2.32237659,5.59644088 C0.958656891,5.93004168 -3.90798505e-14,6.94546305 -3.90798505e-14,8.10395891 C-3.90798505e-14,9.549802 1.47653921,10.7261522 3.29153694,10.7261522 C3.58402739,10.7261522 3.87367572,10.6954763 4.15467414,10.6349632 C4.92649303,11.3107924 6.27526075,11.7261158 7.72115457,11.7261158 C9.33955226,11.7261158 10.7872996,11.2209215 11.5025234,10.4233472 C11.8133022,10.6046467 12.1801819,10.7564687 12.5786955,10.8747388 C12.5765948,10.9181165 12.5747412,10.961614 12.5747412,11.0036736 C12.5747412,12.935179 14.5558172,14.5066017 16.9908897,14.5066017 C17.4005246,14.5066017 17.8064524,14.4617861 18.1991582,14.3733531 C19.2335636,15.3028579 21.0766117,15.875755 23.0569463,15.875755 C25.2866453,15.875755 27.273529,15.1716464 28.2158747,14.0652757 C29.2947653,14.7192962 30.8120826,15.0911221 32.424549,15.0911221 C34.6127284,15.0911221 36.6051728,14.3962402 37.5576512,13.3111989 C37.7651254,13.3288136 37.9739589,13.3378007 38.1804445,13.3378007 C40.4877456,13.3378007 42.295082,12.3125534 42.295082,11.0037934 C42.2952055,9.88927436 40.9602777,8.96372388 39.1052432,8.72814229 L39.1052432,8.72814229 Z M11.385379,9.77016545 L11.2442619,9.96680299 C10.6948692,10.7326229 9.27912648,11.2471638 7.72127814,11.2471638 C6.3358101,11.2471638 5.0642737,10.8469387 4.40267934,10.2026242 L4.30258756,10.1052042 L4.16530117,10.1398344 C3.88319061,10.2110122 3.58921733,10.2472002 3.29166051,10.2472002 C1.74938201,10.2472002 0.494403998,9.28594103 0.494403998,8.10431839 C0.494403998,7.09249185 1.43254825,6.20948027 2.724968,6.00493409 L3.08641056,5.94765637 L2.89648331,5.64413238 C2.76290402,5.43071894 2.69518761,5.20532271 2.69518761,4.97417475 C2.69518761,4.02777422 3.81831631,3.25776033 5.19884154,3.25776033 C5.30795395,3.25776033 5.42151488,3.26315258 5.53631151,3.27393709 L5.99450946,3.31647598 L5.77801464,2.92260177 C5.68620205,2.75532206 5.63961612,2.58408804 5.63961612,2.41321349 C5.63961612,1.36723601 7.35711703,0.483505459 9.39033958,0.483505459 C11.4235621,0.483505459 13.1411866,1.36723601 13.1411866,2.41321349 C13.1411866,2.44748426 13.1385916,2.48511021 13.1329074,2.53136377 L13.1101705,2.79893941 L13.3883268,2.79893941 C14.7852869,2.79893941 15.9653814,3.38957098 15.9651343,4.09415887 L15.9550015,4.3931294 L16.2402013,4.36053622 C16.5743349,4.3221913 16.9187248,4.31895595 17.2521169,4.34951206 C16.2205537,4.8896961 15.5887397,5.76431973 15.5887397,6.7177901 C15.5887397,7.0320986 15.6560854,7.3386183 15.7891704,7.63243624 C14.1708963,7.99539486 12.9358131,9.08079571 12.6429519,10.3947083 C12.2378891,10.2678106 11.8770644,10.1014895 11.5884046,9.90700888 L11.385379,9.77016545 L11.385379,9.77016545 Z M38.1805681,12.8584892 C37.946897,12.8584892 37.709766,12.8461469 37.4759714,12.8219417 L37.3388085,12.8076822 L37.2542866,12.9134902 C36.4305683,13.9452081 34.5348792,14.6119304 32.4246725,14.6119304 C30.8094877,14.6119304 29.3062573,14.2232088 28.3002731,13.5454624 L28.0973709,13.4087388 L27.9562539,13.6053763 C27.1875242,14.6767573 25.2188053,15.3966831 23.0570698,15.3966831 C21.1366668,15.3966831 19.3704793,14.8386447 18.4476577,13.9401754 L18.3474424,13.8426355 L18.210156,13.8773856 C17.8162145,13.9770823 17.4059617,14.0276497 16.9910133,14.0276497 C14.8284128,14.0276497 13.0691452,12.671318 13.0691452,11.004033 C13.0691452,10.9758735 13.0707516,10.9471148 13.0717402,10.9185958 L13.0939828,10.7307057 C13.2493105,9.41547496 14.5298675,8.31162061 16.2080731,8.04596222 L16.5696392,7.9886845 L16.3795884,7.68504067 C16.1878076,7.37876063 16.0906815,7.05462624 16.0906815,6.72162459 C16.0906815,5.76060507 16.9134113,4.88562195 18.1866776,4.49222705 L18.327424,4.44872954 C18.7343404,4.33812841 19.1617694,4.27893344 19.6026675,4.27893344 C19.7544116,4.27893344 19.912952,4.2864826 20.0738403,4.30146108 L20.5320383,4.34388015 L20.3152963,3.95012576 C20.1823349,3.70843295 20.1148656,3.45990994 20.1148656,3.21138694 C20.1148656,1.70527043 22.4599791,0.479910623 25.342499,0.479910623 C28.2250189,0.479910623 30.5702559,1.70527043 30.5702559,3.21138694 C30.5702559,3.26147499 30.5664253,3.3161165 30.5581461,3.38345976 L30.5392398,3.65115523 L30.8173961,3.65115523 C32.779813,3.65115523 34.4376296,4.50049518 34.4376296,5.50585101 L34.4271261,5.82291556 L34.7120788,5.79020255 C34.9693517,5.76048524 35.2320618,5.74550675 35.4926711,5.74550675 C37.455088,5.74550675 39.1130281,6.5948467 39.1130281,7.60032237 C39.1130281,7.99743193 38.8450046,8.39526046 38.3583855,8.72023365 L37.7531391,9.12453289 L38.4873927,9.15700624 C40.3453928,9.23920816 41.8009251,10.0506825 41.8009251,11.0043925 C41.8009251,12.0091492 40.142985,12.8584892 38.1805681,12.8584892 L38.1805681,12.8584892 Z" id="Shape"></path>
            </g>
            <g id="cloud-copy" transform="translate(0.000000, 6.000000)" stroke="#BABABA" fill-rule="nonzero" fill="#FFFFFF">
                <path d="M56.2366751,15.824631 C55.9505974,15.824631 55.6602838,15.8093046 55.3740548,15.7792469 L55.2061297,15.7615396 L55.1026516,15.8929305 C54.0941936,17.1741031 51.7733485,18.0020293 49.1898746,18.0020293 C47.2124438,18.0020293 45.3720761,17.5193203 44.1404745,16.6777045 L43.8920664,16.5079231 L43.7193003,16.7521048 C42.7781636,18.0825304 40.3679098,18.976524 37.7213506,18.976524 C35.3702487,18.976524 33.207949,18.2835599 32.0781614,17.1678535 L31.9554702,17.0467298 L31.7873939,17.089882 C31.3051011,17.213684 30.8028388,17.2764779 30.2948277,17.2764779 C27.6472095,17.2764779 25.4933817,15.5922046 25.4933817,13.5217939 C25.4933817,13.4868258 25.4953484,13.4511136 25.4965587,13.4156991 L25.5237897,13.1823799 C25.7139535,11.5491452 27.2817078,10.1783946 29.3362934,9.8485038 L29.7789498,9.7773771 L29.5462753,9.4003166 C29.3114828,9.0199824 29.1925737,8.61747695 29.1925737,8.20396025 C29.1925737,7.01057993 30.1998214,5.9240384 31.75865,5.43552624 L31.9309622,5.38151164 C32.4291399,5.24416874 32.9524306,5.17066128 33.4922113,5.17066128 C33.6779878,5.17066128 33.872085,5.18003571 34.0690565,5.19863578 L34.6300169,5.25131117 L34.3646651,4.7623526 C34.2018837,4.46222192 34.1192827,4.1536096 34.1192827,3.84499728 C34.1192827,1.97472332 36.9903471,0.45308901 40.5193449,0.45308901 C44.0483426,0.45308901 46.9195583,1.97472332 46.9195583,3.84499728 C46.9195583,3.90719591 46.9148685,3.97504895 46.9047325,4.05867486 L46.8815861,4.39109526 L47.222126,4.39109526 C49.6246644,4.39109526 51.6542881,5.44579347 51.6542881,6.69422999 L51.641429,7.08795621 L51.9902895,7.04733367 C52.3052624,7.01043113 52.6268918,6.99183107 52.9459494,6.99183107 C55.3484878,6.99183107 57.3782629,8.04652928 57.3782629,9.2951146 C57.3782629,9.7882396 57.0501283,10.2822574 56.4543726,10.6858044 L55.7133844,11.1878574 L56.6123129,11.2281824 C58.8870164,11.3302596 60.6689886,12.3379368 60.6689886,13.5222403 C60.6689886,14.7699328 58.6392135,15.824631 56.2366751,15.824631 L56.2366751,15.824631 Z" id="Path" stroke-width="1.3"></path>
                <path d="M23.9839692,32.4730241 C23.7611772,32.4730241 23.5350864,32.4610881 23.3121766,32.4376797 L23.1813997,32.4238896 L23.1008128,32.5262144 C22.3154445,33.5239678 20.5080136,34.1687413 18.4960522,34.1687413 C16.9560659,34.1687413 15.5228218,33.7928166 14.5636734,33.1373818 L14.3702178,33.0051592 L14.2356708,33.1953234 C13.5027311,34.2314341 11.6256703,34.9276597 9.56457926,34.9276597 C7.73358488,34.9276597 6.04962615,34.3879921 5.16976861,33.5191007 L5.074219,33.4247719 L4.94332429,33.458378 C4.56772361,33.5547927 4.17657109,33.6036954 3.78094152,33.6036954 C1.71902578,33.6036954 0.0416648,32.2920147 0.0416648,30.6796174 C0.0416648,30.6523849 0.0431964213,30.6245729 0.0441389575,30.5969928 L0.065346022,30.4152881 C0.213442022,29.1433553 1.43437984,28.0758403 3.03445286,27.8189275 L3.37918547,27.7635354 L3.19798289,27.4698876 C3.01513086,27.1736904 2.92252668,26.8602267 2.92252668,26.5381876 C2.92252668,25.6088052 3.70695243,24.7626269 4.92093905,24.3821827 L5.05513265,24.3401172 C5.44310411,24.2331571 5.8506332,24.1759108 6.27100434,24.1759108 C6.41568365,24.1759108 6.56684289,24.1832115 6.72024065,24.1976968 L7.15710618,24.2387195 L6.95045512,23.8579276 C6.823684,23.6241914 6.75935591,23.3838499 6.75935591,23.1435084 C6.75935591,21.6869738 8.9952874,20.5019534 11.7436051,20.5019534 C14.4919228,20.5019534 16.7279721,21.6869738 16.7279721,23.1435084 C16.7279721,23.1919475 16.7243198,23.2447902 16.7164261,23.3099165 L16.6984001,23.5687993 L16.9636062,23.5687993 C18.8346584,23.5687993 20.4152916,24.3901786 20.4152916,25.3624378 L20.4052771,25.6690644 L20.6769632,25.6374283 C20.9222582,25.6086893 21.1727372,25.5942039 21.4212133,25.5942039 C23.2922655,25.5942039 24.8730165,26.4155833 24.8730165,27.3879583 C24.8730165,27.7719948 24.6174714,28.1567267 24.1535079,28.4710016 L23.5764401,28.8619912 L24.2765089,28.8933955 C26.0480057,28.9728913 27.4357724,29.7576515 27.4357724,30.679965 C27.4357724,31.6516447 25.8550214,32.4730241 23.9839692,32.4730241 L23.9839692,32.4730241 Z" id="Path-Copy" stroke-width="1.2" transform="translate(13.738719, 27.714807) scale(-1, 1) translate(-13.738719, -27.714807) "></path>
            </g>
            <g id="bird" transform="translate(22.000000, 59.000000)" stroke-width="0.4" stroke="#FFFFFF" fill="#BABABA" fill-rule="nonzero">
                <g id="Group">
                    <path d="M6.98136923,11.6966154 L6.98136923,11.6966154 C6.41598462,11.5747692 6.04848462,10.9766154 6.16043077,10.3606154 C6.30347308,9.57292308 3.78185769,8.05415385 1.06688077,7.29230769 C0.508846154,7.13538462 0.172442308,6.51569231 0.31605,5.90830769 C0.462484615,5.30030769 1.04991923,4.93969231 1.58929615,5.09046154 C2.80261154,5.43138462 5.9388,6.45046154 7.43706923,8.22892308 C9.14283462,6.848 12.0636115,6.71753846 13.7722038,7.08738462 C14.3381538,7.20984615 14.7045231,7.808 14.5920115,8.42338462 C14.4811962,9.04 13.9305115,9.43938462 13.3662577,9.31815385 C11.7520846,8.96923077 8.48868462,9.27692308 8.20995,10.8036923 C8.09743846,11.4190769 7.54675385,11.8196923 6.98136923,11.6966154 L6.98136923,11.6966154 Z" id="Shape"></path>
                    <path d="M139.281369,6.88015621 L139.281369,6.88015621 C138.715985,6.75831006 138.348485,6.16015621 138.460431,5.54415621 C138.603473,4.75646391 136.081858,3.23769468 133.366881,2.47584852 C132.808846,2.31892544 132.472442,1.69923314 132.61605,1.09184852 C132.762485,0.483848522 133.349919,0.123233137 133.889296,0.274002368 C135.102612,0.614925445 138.2388,1.63400237 139.737069,3.41246391 C141.442835,2.03154083 144.363612,1.90107929 146.072204,2.27092544 C146.638154,2.39338698 147.004523,2.99154083 146.892012,3.60692544 C146.781196,4.22354083 146.230512,4.62292544 145.666258,4.50169468 C144.052085,4.1527716 140.788685,4.46046391 140.50995,5.98723314 C140.397438,6.60261775 139.846754,7.00323314 139.281369,6.88015621 L139.281369,6.88015621 Z" id="Shape-Copy"></path>
                </g>
            </g>
            <g id="bird-copy" transform="translate(47.000000, 75.500000) scale(-1, 1) translate(-47.000000, -75.500000) translate(41.000000, 73.000000)" stroke-width="0.4" stroke="#FFFFFF" fill="#BABABA" fill-rule="nonzero">
                <g id="Group">
                    <path d="M5.02892308,3.89 C5.14569231,3.35666667 3.08723077,2.32833333 0.870923077,1.8125 C0.415384615,1.70625 0.140769231,1.28666667 0.258,0.875416667 C0.377538462,0.46375 0.857076923,0.219583333 1.29738462,0.321666667 C2.28784615,0.5525 4.848,1.2425 6.07107692,2.44666667 C7.46353846,1.51166667 9.84784615,1.42333333 11.2426154,1.67375 C11.7046154,1.75666667 12.0036923,2.16166667 11.9118462,2.57833333 C11.8213846,2.99583333 11.3718462,3.26625 10.9112308,3.18416667 C9.59353846,2.94791667 6.92953846,3.15625 6.702,4.19 C6.61015385,4.60666667 6.16061538,4.87791667 5.69907692,4.79458333 C5.23753846,4.71208333 4.93753846,4.30708333 5.02892308,3.89 Z" id="Shape"></path>
                </g>
            </g>
        </g>
    </g>
</svg>