<?xml version="1.0" encoding="utf-8"?>
<!-- Generator: Adobe Illustrator 20.1.0, SVG Export Plug-In . SVG Version: 6.00 Build 0)  -->
<svg version="1.1" id="Layer_1" xmlns="http://www.w3.org/2000/svg" xmlns:xlink="http://www.w3.org/1999/xlink" x="0px" y="0px"
	 viewBox="0 0 400 400" style="enable-background:new 0 0 400 400;" xml:space="preserve">
<style type="text/css">
	.st0{fill:#A41F20;}
	.st1{fill:#FFFFFF;}
</style>
<rect class="st0" width="400" height="400"/>
<g>
	<g>
		<path class="st1" d="M50,123.6h8.3v60.3H50V123.6z"/>
		<path class="st1" d="M67.3,140.9h8v4.2c3.4-3.2,6.9-4.8,10.5-4.8c2.3,0,4,0.8,5,2.5c1,1.7,1.5,3.8,1.5,6.2v34.8h-8v-32.5
			c0-1.6-0.2-2.9-0.7-3.6c-0.5-0.8-1.4-1.2-2.7-1.2c-1.6,0-3.5,0.9-5.6,2.7v34.7h-8V140.9z"/>
		<path class="st1" d="M117.7,123.6h13.1c6.5,0,11.1,1.5,13.8,4.5c2.7,3,4.1,7.6,4.1,13.9v22.2c0,6.6-1.3,11.6-4,14.8
			c-2.7,3.3-7.1,4.9-13.2,4.9h-13.8V123.6z M130.8,177.9c2.9,0,5-0.6,6.4-1.7c1.3-1.1,2.1-2.7,2.5-4.6c0.3-2,0.5-4.9,0.5-8.9v-19.6
			c0-3.4-0.2-6-0.6-7.8c-0.4-1.8-1.3-3.1-2.6-4c-1.3-0.9-3.4-1.3-6.2-1.3h-4.5v48H130.8z"/>
		<path class="st1" d="M159.5,183.1c-1.3-0.9-2.3-2.2-3.1-3.7c-0.7-1.5-1.1-3.1-1.1-4.8c0-3.4,0.7-6.1,2.2-8.2
			c1.4-2.1,3.3-3.8,5.5-5c2.2-1.2,5.3-2.6,9.3-4.3V154c0-2.8-0.3-4.8-0.9-6c-0.6-1.2-1.7-1.7-3.5-1.7c-3,0-4.5,2-4.5,6.1v2.2
			l-7.9-0.3l0.1-1.6c0.2-4.3,1.5-7.4,3.6-9.4c2.2-2,5.2-2.9,9.3-2.9c4.1,0,7.1,1.1,9,3.4c1.9,2.3,2.8,5.7,2.8,10.2v19.6
			c0,3.2,0.2,6.7,0.7,10.3h-7.3c-0.5-2.8-0.9-4.9-1-6.3c-0.6,1.9-1.6,3.6-3.1,4.9c-1.5,1.3-3.3,2-5.6,2
			C162.3,184.5,160.8,184,159.5,183.1z M170.1,176.4c1-0.8,1.7-1.6,2.2-2.3v-12.2c-2.2,1.3-3.8,2.3-4.9,3c-1.1,0.7-2,1.7-2.9,2.9
			c-0.8,1.2-1.2,2.6-1.2,4.3c0,1.8,0.3,3.2,1,4.1c0.6,1,1.6,1.5,2.8,1.5C168.1,177.7,169.1,177.2,170.1,176.4z"/>
		<path class="st1" d="M208.1,179.3c-2.4-3.5-3.6-8.4-3.6-14.7v-21.3c0-6.6,1.2-11.6,3.6-15c2.4-3.4,6.6-5.1,12.6-5.1
			c5.4,0,9.3,1.5,11.6,4.4c2.4,2.9,3.5,7.2,3.5,12.9v4.8h-8V141c0-2.8-0.1-4.9-0.4-6.4c-0.2-1.5-0.9-2.7-1.9-3.6
			c-1-0.9-2.6-1.3-4.9-1.3c-2.3,0-4,0.5-5.1,1.4c-1.1,1-1.8,2.3-2.2,4c-0.4,1.7-0.5,4-0.5,6.9v23.9c0,3.1,0.2,5.5,0.7,7.2
			c0.5,1.7,1.3,3,2.4,3.7c1.1,0.7,2.7,1.1,4.6,1.1c2.1,0,3.7-0.5,4.8-1.4s1.7-2.2,2-3.9c0.3-1.6,0.4-3.9,0.4-6.7v-4.5h8v4.5
			c0,6-1.1,10.6-3.4,13.8c-2.3,3.2-6.2,4.8-11.8,4.8C214.8,184.6,210.6,182.8,208.1,179.3z"/>
		<path class="st1" d="M243.5,123.6h8v21.7c3.6-3.4,7.2-5.1,10.8-5.1c2.3,0,4,0.8,4.9,2.5c1,1.7,1.5,3.8,1.5,6.2v34.8h-8v-32.5
			c0-1.6-0.2-2.9-0.7-3.6c-0.5-0.8-1.4-1.2-2.7-1.2c-1.7,0-3.7,0.9-5.8,2.8v34.5h-8V123.6z"/>
		<path class="st1" d="M279.7,183.1c-1.3-0.9-2.3-2.2-3.1-3.7c-0.7-1.5-1.1-3.1-1.1-4.8c0-3.4,0.7-6.1,2.2-8.2
			c1.4-2.1,3.3-3.8,5.5-5c2.2-1.2,5.3-2.6,9.3-4.3V154c0-2.8-0.3-4.8-0.9-6c-0.6-1.2-1.7-1.7-3.5-1.7c-3,0-4.5,2-4.5,6.1v2.2
			l-7.9-0.3l0.1-1.6c0.2-4.3,1.5-7.4,3.6-9.4c2.2-2,5.2-2.9,9.3-2.9c4.1,0,7.1,1.1,9,3.4c1.9,2.3,2.8,5.7,2.8,10.2v19.6
			c0,3.2,0.2,6.7,0.7,10.3h-7.3c-0.5-2.8-0.9-4.9-1-6.3c-0.6,1.9-1.6,3.6-3.1,4.9c-1.5,1.3-3.3,2-5.6,2
			C282.4,184.5,281,184,279.7,183.1z M290.3,176.4c1-0.8,1.7-1.6,2.2-2.3v-12.2c-2.2,1.3-3.8,2.3-4.9,3c-1.1,0.7-2,1.7-2.9,2.9
			c-0.8,1.2-1.2,2.6-1.2,4.3c0,1.8,0.3,3.2,1,4.1c0.6,1,1.6,1.5,2.8,1.5C288.2,177.7,289.3,177.2,290.3,176.4z"/>
		<path class="st1" d="M308.6,126.2h8v8.3h-8V126.2z M308.6,140.9h8v43h-8V140.9z"/>
		<path class="st1" d="M325.1,140.9h8v4.2c3.4-3.2,6.9-4.8,10.5-4.8c2.3,0,4,0.8,5,2.5c1,1.7,1.5,3.8,1.5,6.2v34.8h-8v-32.5
			c0-1.6-0.2-2.9-0.7-3.6c-0.5-0.8-1.4-1.2-2.7-1.2c-1.6,0-3.5,0.9-5.6,2.7v34.7h-8V140.9z"/>
	</g>
	<g>
		<path class="st1" d="M50,211.4h24.5v6.3H58.8v21.1h12.1v6.3H58.8v29.6H50V211.4z"/>
		<path class="st1" d="M81.9,271c-2-2.8-3-7-3-12.4v-13.1c0-5.4,1-9.5,3-12.4c2-2.8,5.4-4.3,10.2-4.3c4.7,0,8.1,1.4,10.1,4.3
			c2,2.8,3,7,3,12.4v13.1c0,5.4-1,9.5-3,12.4c-2,2.8-5.4,4.3-10.1,4.3C87.3,275.3,83.9,273.9,81.9,271z M95.4,267.8
			c0.7-0.9,1.1-2,1.3-3.3c0.2-1.3,0.2-3.1,0.2-5.3v-14.1c0-2.2-0.1-4-0.2-5.4c-0.2-1.3-0.6-2.4-1.3-3.3c-0.7-0.9-1.8-1.3-3.3-1.3
			c-1.5,0-2.6,0.4-3.3,1.3c-0.7,0.9-1.1,2-1.3,3.3c-0.2,1.3-0.2,3.1-0.2,5.4v14.1c0,2.2,0.1,4,0.2,5.3c0.2,1.3,0.6,2.4,1.3,3.3
			c0.7,0.9,1.8,1.3,3.3,1.3C93.6,269.1,94.7,268.7,95.4,267.8z"/>
		<path class="st1" d="M114.1,272.6c-1-1.8-1.6-4-1.6-6.6v-36.6h8.4v34.1c0,1.7,0.3,3,0.8,3.9c0.5,0.9,1.5,1.3,2.8,1.3
			c1.7,0,3.6-0.9,5.9-2.8v-36.4h8.4v45.2h-8.4v-4.5c-3.6,3.4-7.3,5.1-11,5.1C116.9,275.3,115.2,274.4,114.1,272.6z"/>
		<path class="st1" d="M147.3,229.5h8.4v4.5c3.6-3.4,7.3-5.1,11-5.1c2.4,0,4.2,0.9,5.2,2.7s1.6,4,1.6,6.6v36.6h-8.4v-34.2
			c0-1.7-0.3-3-0.8-3.8c-0.5-0.8-1.5-1.2-2.8-1.2c-1.7,0-3.6,0.9-5.9,2.8v36.4h-8.4V229.5z"/>
		<path class="st1" d="M183.4,271c-1.8-2.9-2.7-7.6-2.7-14.1v-8.8c0-6,0.8-10.7,2.4-14.1c1.6-3.4,4.5-5.2,8.7-5.2
			c2.7,0,5.2,1.2,7.5,3.5v-21h8.4v63.3h-8.4v-2.9c-2.2,2.3-4.7,3.5-7.4,3.5C188,275.3,185.2,273.9,183.4,271z M199.3,267v-29.6
			c-1.9-1.3-3.7-2-5.3-2c-3.3,0-4.9,3.2-4.9,9.5v12.7c0,3.6,0.3,6.4,1,8.3c0.7,1.9,2,2.8,4.1,2.8C195.8,268.7,197.5,268.2,199.3,267
			z"/>
		<path class="st1" d="M219.6,273.8c-1.4-1-2.5-2.3-3.2-3.9c-0.8-1.6-1.2-3.3-1.2-5.1c0-3.5,0.8-6.4,2.3-8.6c1.5-2.2,3.4-4,5.7-5.2
			c2.3-1.3,5.6-2.8,9.8-4.5v-3.2c0-3-0.3-5.1-0.9-6.3c-0.6-1.2-1.8-1.8-3.6-1.8c-3.2,0-4.8,2.1-4.8,6.4v2.3l-8.3-0.3l0.1-1.6
			c0.3-4.5,1.5-7.8,3.8-9.9c2.3-2.1,5.5-3.1,9.7-3.1c4.3,0,7.5,1.2,9.4,3.6c2,2.4,2.9,6,2.9,10.7v20.6c0,3.4,0.3,7,0.8,10.9h-7.7
			c-0.6-3-0.9-5.2-1.1-6.6c-0.6,2-1.7,3.8-3.2,5.2c-1.5,1.4-3.5,2.1-5.9,2.1C222.5,275.3,221,274.8,219.6,273.8z M230.7,266.8
			c1-0.9,1.8-1.7,2.3-2.5v-12.8c-2.3,1.4-4,2.4-5.2,3.2c-1.2,0.8-2.1,1.8-3,3c-0.9,1.3-1.3,2.8-1.3,4.5c0,1.9,0.3,3.3,1,4.3
			c0.7,1,1.7,1.5,3,1.5C228.6,268.1,229.7,267.7,230.7,266.8z"/>
		<path class="st1" d="M253.3,272.6c-1.5-1.8-2.3-4.5-2.3-8.1v-29.5h-4.8v-5.5h4.8v-13.2h8.4v13.2h7.3v5.5h-7.3V264
			c0,1.8,0.3,3.1,0.9,3.8c0.6,0.7,1.7,1.1,3.3,1.1c1,0,2.1-0.1,3-0.2v6.2c-2.1,0.3-4,0.5-5.8,0.5
			C257.3,275.3,254.8,274.4,253.3,272.6z"/>
		<path class="st1" d="M273.3,214h8.4v8.8h-8.4V214z M273.3,229.5h8.4v45.2h-8.4V229.5z"/>
		<path class="st1" d="M292.8,271c-2-2.8-3-7-3-12.4v-13.1c0-5.4,1-9.5,3-12.4c2-2.8,5.4-4.3,10.2-4.3c4.7,0,8.1,1.4,10.1,4.3
			c2,2.8,3,7,3,12.4v13.1c0,5.4-1,9.5-3,12.4c-2,2.8-5.4,4.3-10.1,4.3C298.2,275.3,294.8,273.9,292.8,271z M306.3,267.8
			c0.7-0.9,1.1-2,1.3-3.3c0.2-1.3,0.2-3.1,0.2-5.3v-14.1c0-2.2-0.1-4-0.2-5.4c-0.2-1.3-0.6-2.4-1.3-3.3c-0.7-0.9-1.8-1.3-3.3-1.3
			c-1.5,0-2.6,0.4-3.3,1.3c-0.7,0.9-1.1,2-1.3,3.3c-0.2,1.3-0.2,3.1-0.2,5.4v14.1c0,2.2,0.1,4,0.2,5.3c0.2,1.3,0.6,2.4,1.3,3.3
			c0.7,0.9,1.8,1.3,3.3,1.3C304.5,269.1,305.6,268.7,306.3,267.8z"/>
		<path class="st1" d="M323.8,229.5h8.4v4.5c3.6-3.4,7.3-5.1,11-5.1c2.4,0,4.2,0.9,5.2,2.7c1,1.8,1.6,4,1.6,6.6v36.6h-8.4v-34.2
			c0-1.7-0.3-3-0.8-3.8c-0.5-0.8-1.5-1.2-2.8-1.2c-1.7,0-3.6,0.9-5.9,2.8v36.4h-8.4V229.5z"/>
	</g>
</g>
</svg>
