<svg id="Layer_1" xmlns="http://www.w3.org/2000/svg" viewBox="0 0 400 400"><style>.st0{fill:#a41f20}.st1{fill:#fff}</style><path class="st0" d="M0 0h400v400H0z"/><path class="st1" d="M50 123.6h8.3v60.3H50v-60.3zm17.3 17.3h8v4.2c3.4-3.2 6.9-4.8 10.5-4.8 2.3 0 4 .8 5 2.5s1.5 3.8 1.5 6.2v34.8h-8v-32.5c0-1.6-.2-2.9-.7-3.6-.5-.8-1.4-1.2-2.7-1.2-1.6 0-3.5.9-5.6 2.7v34.7h-8v-43zm50.4-17.3h13.1c6.5 0 11.1 1.5 13.8 4.5 2.7 3 4.1 7.6 4.1 13.9v22.2c0 6.6-1.3 11.6-4 14.8-2.7 3.3-7.1 4.9-13.2 4.9h-13.8v-60.3zm13.1 54.3c2.9 0 5-.6 6.4-1.7 1.3-1.1 2.1-2.7 2.5-4.6.3-2 .5-4.9.5-8.9v-19.6c0-3.4-.2-6-.6-7.8-.4-1.8-1.3-3.1-2.6-4-1.3-.9-3.4-1.3-6.2-1.3h-4.5v48h4.5zm28.7 5.2c-1.3-.9-2.3-2.2-3.1-3.7-.7-1.5-1.1-3.1-1.1-4.8 0-3.4.7-6.1 2.2-8.2 1.4-2.1 3.3-3.8 5.5-5 2.2-1.2 5.3-2.6 9.3-4.3V154c0-2.8-.3-4.8-.9-6-.6-1.2-1.7-1.7-3.5-1.7-3 0-4.5 2-4.5 6.1v2.2l-7.9-.3.1-1.6c.2-4.3 1.5-7.4 3.6-9.4 2.2-2 5.2-2.9 9.3-2.9 4.1 0 7.1 1.1 9 3.4 1.9 2.3 2.8 5.7 2.8 10.2v19.6c0 3.2.2 6.7.7 10.3h-7.3c-.5-2.8-.9-4.9-1-6.3-.6 1.9-1.6 3.6-3.1 4.9-1.5 1.3-3.3 2-5.6 2-1.7 0-3.2-.5-4.5-1.4zm10.6-6.7c1-.8 1.7-1.6 2.2-2.3v-12.2c-2.2 1.3-3.8 2.3-4.9 3-1.1.7-2 1.7-2.9 2.9-.8 1.2-1.2 2.6-1.2 4.3 0 1.8.3 3.2 1 4.1.6 1 1.6 1.5 2.8 1.5 1 0 2-.5 3-1.3zm38 2.9c-2.4-3.5-3.6-8.4-3.6-14.7v-21.3c0-6.6 1.2-11.6 3.6-15 2.4-3.4 6.6-5.1 12.6-5.1 5.4 0 9.3 1.5 11.6 4.4 2.4 2.9 3.5 7.2 3.5 12.9v4.8h-8V141c0-2.8-.1-4.9-.4-6.4-.2-1.5-.9-2.7-1.9-3.6-1-.9-2.6-1.3-4.9-1.3-2.3 0-4 .5-5.1 1.4-1.1 1-1.8 2.3-2.2 4-.4 1.7-.5 4-.5 6.9v23.9c0 3.1.2 5.5.7 7.2.5 1.7 1.3 3 2.4 3.7 1.1.7 2.7 1.1 4.6 1.1 2.1 0 3.7-.5 4.8-1.4s1.7-2.2 2-3.9c.3-1.6.4-3.9.4-6.7v-4.5h8v4.5c0 6-1.1 10.6-3.4 13.8-2.3 3.2-6.2 4.8-11.8 4.8-5.7.1-9.9-1.7-12.4-5.2zm35.4-55.7h8v21.7c3.6-3.4 7.2-5.1 10.8-5.1 2.3 0 4 .8 4.9 2.5 1 1.7 1.5 3.8 1.5 6.2v34.8h-8v-32.5c0-1.6-.2-2.9-.7-3.6-.5-.8-1.4-1.2-2.7-1.2-1.7 0-3.7.9-5.8 2.8v34.5h-8v-60.1zm36.2 59.5c-1.3-.9-2.3-2.2-3.1-3.7-.7-1.5-1.1-3.1-1.1-4.8 0-3.4.7-6.1 2.2-8.2 1.4-2.1 3.3-3.8 5.5-5 2.2-1.2 5.3-2.6 9.3-4.3V154c0-2.8-.3-4.8-.9-6-.6-1.2-1.7-1.7-3.5-1.7-3 0-4.5 2-4.5 6.1v2.2l-7.9-.3.1-1.6c.2-4.3 1.5-7.4 3.6-9.4 2.2-2 5.2-2.9 9.3-2.9 4.1 0 7.1 1.1 9 3.4 1.9 2.3 2.8 5.7 2.8 10.2v19.6c0 3.2.2 6.7.7 10.3h-7.3c-.5-2.8-.9-4.9-1-6.3-.6 1.9-1.6 3.6-3.1 4.9-1.5 1.3-3.3 2-5.6 2-1.8 0-3.2-.5-4.5-1.4zm10.6-6.7c1-.8 1.7-1.6 2.2-2.3v-12.2c-2.2 1.3-3.8 2.3-4.9 3-1.1.7-2 1.7-2.9 2.9-.8 1.2-1.2 2.6-1.2 4.3 0 1.8.3 3.2 1 4.1.6 1 1.6 1.5 2.8 1.5.9 0 2-.5 3-1.3zm18.3-50.2h8v8.3h-8v-8.3zm0 14.7h8v43h-8v-43zm16.5 0h8v4.2c3.4-3.2 6.9-4.8 10.5-4.8 2.3 0 4 .8 5 2.5s1.5 3.8 1.5 6.2v34.8h-8v-32.5c0-1.6-.2-2.9-.7-3.6-.5-.8-1.4-1.2-2.7-1.2-1.6 0-3.5.9-5.6 2.7v34.7h-8v-43zM50 211.4h24.5v6.3H58.8v21.1h12.1v6.3H58.8v29.6H50v-63.3zM81.9 271c-2-2.8-3-7-3-12.4v-13.1c0-5.4 1-9.5 3-12.4 2-2.8 5.4-4.3 10.2-4.3 4.7 0 8.1 1.4 10.1 4.3 2 2.8 3 7 3 12.4v13.1c0 5.4-1 9.5-3 12.4-2 2.8-5.4 4.3-10.1 4.3-4.8 0-8.2-1.4-10.2-4.3zm13.5-3.2c.7-.9 1.1-2 1.3-3.3.2-1.3.2-3.1.2-5.3v-14.1c0-2.2-.1-4-.2-5.4-.2-1.3-.6-2.4-1.3-3.3-.7-.9-1.8-1.3-3.3-1.3-1.5 0-2.6.4-3.3 1.3-.7.9-1.1 2-1.3 3.3-.2 1.3-.2 3.1-.2 5.4v14.1c0 2.2.1 4 .2 5.3.2 1.3.6 2.4 1.3 3.3.7.9 1.8 1.3 3.3 1.3 1.5 0 2.6-.4 3.3-1.3zm18.7 4.8c-1-1.8-1.6-4-1.6-6.6v-36.6h8.4v34.1c0 1.7.3 3 .8 3.9.5.9 1.5 1.3 2.8 1.3 1.7 0 3.6-.9 5.9-2.8v-36.4h8.4v45.2h-8.4v-4.5c-3.6 3.4-7.3 5.1-11 5.1-2.5 0-4.2-.9-5.3-2.7zm33.2-43.1h8.4v4.5c3.6-3.4 7.3-5.1 11-5.1 2.4 0 4.2.9 5.2 2.7s1.6 4 1.6 6.6v36.6h-8.4v-34.2c0-1.7-.3-3-.8-3.8-.5-.8-1.5-1.2-2.8-1.2-1.7 0-3.6.9-5.9 2.8v36.4h-8.4v-45.3zm36.1 41.5c-1.8-2.9-2.7-7.6-2.7-14.1v-8.8c0-6 .8-10.7 2.4-14.1 1.6-3.4 4.5-5.2 8.7-5.2 2.7 0 5.2 1.2 7.5 3.5v-21h8.4v63.3h-8.4v-2.9c-2.2 2.3-4.7 3.5-7.4 3.5-3.9.1-6.7-1.3-8.5-4.2zm15.9-4v-29.6c-1.9-1.3-3.7-2-5.3-2-3.3 0-4.9 3.2-4.9 9.5v12.7c0 3.6.3 6.4 1 8.3.7 1.9 2 2.8 4.1 2.8 1.6 0 3.3-.5 5.1-1.7zm20.3 6.8c-1.4-1-2.5-2.3-3.2-3.9-.8-1.6-1.2-3.3-1.2-5.1 0-3.5.8-6.4 2.3-8.6 1.5-2.2 3.4-4 5.7-5.2 2.3-1.3 5.6-2.8 9.8-4.5v-3.2c0-3-.3-5.1-.9-6.3-.6-1.2-1.8-1.8-3.6-1.8-3.2 0-4.8 2.1-4.8 6.4v2.3l-8.3-.3.1-1.6c.3-4.5 1.5-7.8 3.8-9.9 2.3-2.1 5.5-3.1 9.7-3.1 4.3 0 7.5 1.2 9.4 3.6 2 2.4 2.9 6 2.9 10.7v20.6c0 3.4.3 7 .8 10.9h-7.7c-.6-3-.9-5.2-1.1-6.6-.6 2-1.7 3.8-3.2 5.2-1.5 1.4-3.5 2.1-5.9 2.1-1.7-.2-3.2-.7-4.6-1.7zm11.1-7c1-.9 1.8-1.7 2.3-2.5v-12.8c-2.3 1.4-4 2.4-5.2 3.2-1.2.8-2.1 1.8-3 3-.9 1.3-1.3 2.8-1.3 4.5 0 1.9.3 3.3 1 4.3s1.7 1.5 3 1.5c1.1.1 2.2-.3 3.2-1.2zm22.6 5.8c-1.5-1.8-2.3-4.5-2.3-8.1V235h-4.8v-5.5h4.8v-13.2h8.4v13.2h7.3v5.5h-7.3v29c0 1.8.3 3.1.9 3.8.6.7 1.7 1.1 3.3 1.1 1 0 2.1-.1 3-.2v6.2c-2.1.3-4 .5-5.8.5-3.5-.1-6-1-7.5-2.8zm20-58.6h8.4v8.8h-8.4V214zm0 15.5h8.4v45.2h-8.4v-45.2zm19.5 41.5c-2-2.8-3-7-3-12.4v-13.1c0-5.4 1-9.5 3-12.4 2-2.8 5.4-4.3 10.2-4.3 4.7 0 8.1 1.4 10.1 4.3 2 2.8 3 7 3 12.4v13.1c0 5.4-1 9.5-3 12.4-2 2.8-5.4 4.3-10.1 4.3-4.8 0-8.2-1.4-10.2-4.3zm13.5-3.2c.7-.9 1.1-2 1.3-3.3.2-1.3.2-3.1.2-5.3v-14.1c0-2.2-.1-4-.2-5.4-.2-1.3-.6-2.4-1.3-3.3-.7-.9-1.8-1.3-3.3-1.3-1.5 0-2.6.4-3.3 1.3-.7.9-1.1 2-1.3 3.3-.2 1.3-.2 3.1-.2 5.4v14.1c0 2.2.1 4 .2 5.3.2 1.3.6 2.4 1.3 3.3.7.9 1.8 1.3 3.3 1.3 1.5 0 2.6-.4 3.3-1.3zm17.5-38.3h8.4v4.5c3.6-3.4 7.3-5.1 11-5.1 2.4 0 4.2.9 5.2 2.7 1 1.8 1.6 4 1.6 6.6v36.6h-8.4v-34.2c0-1.7-.3-3-.8-3.8-.5-.8-1.5-1.2-2.8-1.2-1.7 0-3.6.9-5.9 2.8v36.4h-8.4v-45.3z"/></svg>