<svg id="Слой_1" xmlns="http://www.w3.org/2000/svg" viewBox="0 0 22 22"><style>.st0{fill:#fed800}.st0,.st1{fill-rule:evenodd;clip-rule:evenodd}</style><path class="st0" d="M21.7 11.2l-1.1 1.6c-.3.5-.5 1.1-.4 1.7l.2 1.9c.1.8-.4 1.6-1.2 1.8l-1.8.5c-.6.2-1.1.5-1.4 1l-1.1 1.6c-.5.7-1.4.9-2.1.6L11 21c-.5-.2-1.1-.3-1.7-.1l-1.8.5c-.8.2-1.6-.2-2-.9l-.8-1.7c-.3-.5-.7-1-1.2-1.2l-1.7-.8c-.8-.3-1.2-1.2-1-2l.4-1.8c.1-.6.1-1.2-.2-1.7L.2 9.5c-.4-.7-.2-1.6.5-2.1l1.5-1.1c.5-.3.8-.8 1-1.4L3.7 3c.2-.8 1-1.3 1.8-1.3l1.9.1c.6.2 1.2 0 1.7-.4L10.6.3c.7-.5 1.6-.4 2.2.2l1.4 1.3c.4.4 1 .7 1.6.7l1.9.1c.8.1 1.5.7 1.6 1.5l.2 1.9c.1.6.3 1.1.7 1.6L21.5 9c.6.6.7 1.5.2 2.2z"/><path class="st1" d="M15.5 6.7L8.3 16H6.5l7.3-9.3h1.7zM9.8 9c0-.2 0-.3-.1-.5s-.2-.2-.3-.4C9.3 8 9.2 8 9 7.9c-.1-.1-.3-.1-.4-.1-.2 0-.3 0-.5.1-.1.1-.3.1-.4.3-.1.1-.2.2-.2.3-.1.2-.1.3-.1.5s0 .3.1.5c.1.1.2.3.3.4 0 .1.2.2.3.2.1.1.3.1.5.1s.3 0 .5-.1c.1-.1.2-.1.3-.3.1-.1.2-.2.3-.4 0-.1.1-.2.1-.4zM11 9c0 .3-.1.7-.2 1-.1.3-.3.6-.5.8-.2.2-.5.4-.8.5-.3.1-.6.2-.9.2s-.7-.1-1-.2c-.3-.1-.6-.3-.8-.5-.2-.2-.4-.5-.5-.8-.1-.3-.2-.7-.2-1s.1-.7.2-1c.1-.3.3-.6.5-.8.3-.2.5-.3.8-.5.3-.1.6-.2 1-.2s.7.1.9.2c.3.1.6.3.8.5.2.2.4.5.5.8.2.3.2.7.2 1zm3.9 4.6c0-.2 0-.3-.1-.5-.1-.1-.2-.3-.3-.4-.1-.1-.2-.2-.4-.3s-.3-.1-.5-.1-.3 0-.5.1c-.1.1-.3.2-.4.3-.1.1-.2.2-.3.4-.1.1-.1.3-.1.5s0 .3.1.5c.1.1.1.3.3.4.1.1.2.2.4.3.1.1.3.1.5.1s.3 0 .5-.1.3-.1.4-.3c.1-.1.2-.2.3-.4 0-.2.1-.3.1-.5zm1.2 0c0 .3-.1.7-.2 1-.1.3-.3.6-.5.8-.2.2-.5.4-.8.5-.3.1-.6.2-1 .2s-.7-.1-1-.2c-.3-.1-.6-.3-.8-.5-.2-.2-.4-.5-.5-.8-.1-.3-.2-.6-.2-1 0-.3.1-.7.2-1 .1-.3.3-.6.5-.8s.5-.4.8-.5c.3-.1.6-.2 1-.2s.7.1 1 .2c.3.1.6.3.8.5s.4.5.5.8c.2.4.2.7.2 1z"/></svg>