<svg xmlns="http://www.w3.org/2000/svg" viewBox="0 0 362 362"><path d="M75.7 266.2c-.4 1.6-1.4 3-3.1 4.2-.9.7-1.9 1.1-2.9 1.4-.9.3-1.9.4-2.9.3-.2 0-.5-.1-.7-.1-1.2-.2-2.3-.8-3.1-1.6h-.1c-.4-.3-.7-.7-1-1.1-.3-.5-.6-.9-.9-1.5-.3-.5-.5-1.1-.8-1.7l9.9-7.3c.6.2 1.1.4 1.6.6h.1c.4.2.8.4 1.1.6.2.2.5.4.7.6.4.4.8.8 1.2 1.3 1.1 1.3 1.3 2.7.9 4.3zm11-19.6l-5.7-4.3-28.3 20.9c.3 1.1.5 2.1.8 3.1.2.8.5 1.5.8 2.2.6 1.5 1.4 2.9 2.5 4.3 1.3 1.8 2.8 3.2 4.4 4.3.3.2.6.4.9.5 1.2.7 2.4 1.1 3.7 1.4.1 0 .2.1.4.1h.2c1.7.2 3.4.1 5.2-.3 1.8-.5 3.6-1.3 5.3-2.6 1.5-1.1 2.7-2.4 3.6-3.8.9-1.4 1.5-2.9 1.7-4.4.3-1.5.2-3.1-.2-4.7s-1.1-3.1-2.2-4.5c-.5-.7-1-1.3-1.6-1.9l-.5-.5c-.1-.1-.2-.2-.3-.2-.6-.5-1.2-.9-1.8-1.3l11.1-8.3zm-4 44.6c0-.6.3-1.2.7-1.8.5-.6 1.1-.9 1.7-1.1.5-.1.9-.1 1.4 0 .2 0 .3.1.5.1.7.2 1.3.5 1.9 1 .6.4 1.3.9 1.9 1.5l-3.7 4.3c-.3-.1-.5-.2-.7-.4-.3-.2-.7-.4-1-.6-.3-.2-.7-.5-1-.7-.3-.2-.6-.5-.9-.7-.6-.4-.8-1-.8-1.6m19.6-7.9c-.3-1-.7-1.9-1.3-2.8-.6-.8-1.2-1.5-1.9-2.1-1.3-1.1-2.8-2.1-4.5-3.1-1.7-1-3.7-1.6-5.9-2l-1.5 6c1.1.1 2.2.3 3.2.6.4.1.7.3 1.1.4 1.3.6 2.4 1.2 3.2 2 .6.5 1 1.1 1 1.7.1.6-.1 1.2-.5 1.7l-.7.8c-1.2-1-2.4-2-3.7-2.8-1.3-.9-2.7-1.5-4.2-1.8-1.4-.3-2.9-.3-4.3.1s-2.8 1.3-4.1 2.8c-.7.8-1.2 1.7-1.5 2.7-.3 1-.4 2.1-.4 3.2s.3 2.2.7 3.2c0 0 0 .1.1.1.4 1 1.1 1.9 1.9 2.6.4.4.9.8 1.4 1.2.5.4 1.1.8 1.6 1.2s1 .7 1.5 1c.5.3 4.8 3.7 5.1 3.9l12-13.9c1-1.2 1.6-2.3 1.8-3.5.2-1.2.2-2.2-.1-3.2m25.3 17c-.9-2.5-2.7-4.5-5.6-6.1-1.2-.6-2.5-1.2-3.8-1.6-1.1-.4-2.3-.6-3.5-.8l-.1.1-3.5-3.4L99 311.1c1.9 1.2 3.9 2.4 5.9 3.5l9-16.8c1.3 0 2.9.6 4.8 1.6 1.1.6 1.8 1.5 2 2.7.2 1.2-.1 2.7-1 4.4L113 319c2.1 1 4.1 2 6.2 2.9l6.9-12.9c2-3.3 2.4-6.2 1.5-8.7m15.8 24.1c-.4 0-.8-.1-1.1-.1-.4-.1-.8-.1-1.3-.2l-1.2-.3c-.6-.2-1-.5-1.2-1.1-.3-.6-.3-1.2-.1-1.9.2-.7.6-1.3 1-1.7.5-.4 1.1-.6 1.7-.7.7-.1 1.4-.1 2.1 0 .8.1 1.5.3 2.3.5l-1.5 5.5h-.7m11-14.4c-.3-1.1-.8-2.1-1.5-2.9-.7-.8-1.5-1.4-2.4-1.9-.8-.5-1.7-.8-2.6-1.1-1.6-.4-3.4-.7-5.3-.9-1.9-.2-4 .1-6.2.7l1.2 6.1c1.4-.5 2.8-.8 4.2-.9 1.4 0 2.7.1 3.8.4.8.2 1.3.6 1.7 1.1.3.5.4 1.1.3 1.7l-.3 1.1c-1.5-.4-3-.7-4.6-.9-1.6-.2-3.1-.2-4.6.1-1.4.3-2.8 1-3.9 1.9-1.1 1-2 2.4-2.5 4.3-.3 1-.3 2-.2 3.1.2 1.1.5 2.1 1 3.1s1.2 1.9 2 2.6c0 0 .1 0 .1.1.8.7 1.8 1.2 2.8 1.5 1.8.5 3.7.9 5.6 1.1.6.1 5.9 1.3 6.3 1.3l4.9-17.6c.4-1.6.4-2.9.2-4m28.6 1.6c-1.9-1.9-4.4-2.9-7.6-3.1-1.4-.1-2.7 0-4.1.2-1.2.2-2.4.4-3.5.8v.1l-4.6-1.8-1.3 25.8c2.3.3 4.5.5 6.8.7l.9-19c1.2-.5 2.9-.8 5-.6 1.3.1 2.3.6 3 1.6.7 1 1 2.5.9 4.4l-.7 14.1h2.8c1.4 0 2.7 0 4.1-.1l.7-14.7c.3-3.7-.5-6.5-2.4-8.4m18.6 12.9c.1-.4.1-.7.2-.9 0-.1.1-.2.2-.3.3-.4.6-.8 1-1.1.6-.4 1.2-.7 1.9-.9.7-.2 1.5-.4 2.3-.6l1.1 5.6c-.2.1-.5.3-.7.4-.3.1-.7.3-1.1.4-.4.1-.8.3-1.2.4l-1.2.3c-.4.1-.9 0-1.2-.2-.1-.1-.3-.2-.4-.3-.2-.2-.4-.4-.5-.6-.2-.3-.4-.7-.4-1.1v-1.1zm11.1-12.1c0-.1-.1-.3-.1-.4-.2-.9-.5-1.8-1-2.4-.2-.3-.3-.5-.5-.7l-.5-.5c-.6-.6-1.3-1.1-2.1-1.4-1-.4-2-.6-3-.6s-2 0-2.8.2c-1.7.3-3.4.9-5.2 1.6-1.6.7-3.2 1.7-4.7 3-.2.2-.4.3-.6.5l3.8 4.9c1-1.1 2.2-2 3.4-2.7 1.2-.7 2.4-1.1 3.6-1.3.8-.2 1.5-.1 2 .2.5.3.9.8 1 1.4l.2 1.1c-1.5.3-3 .7-4.5 1.2s-2.9 1.2-4 2.2c-1.1.9-2 2.1-2.6 3.4-.4 1-.6 2.2-.5 3.6 0 .5.1.9.2 1.4.2.8.5 1.6.9 2.3.1.2.2.4.3.5.2.3.5.7.8 1l.5.5c.3.3.6.6 1 .8.3.2.6.4.9.5.7.4 1.4.7 2.1.9h.1c1.1.3 2.1.3 3.2.1 1.9-.4 3.7-.9 5.4-1.5.5-.2 5.8-1.5 6.2-1.7l-3.5-18.1zm35 5.6l-2.5-2.3-2.1-1.9c-1.5 1.4-2.8 2.4-3.7 3.1-.4.3-.9.6-1.3.9-.5.3-.9.5-1.3.6-.2.1-.5.2-.7.3h-.2c-.2.1-.4.1-.5.1-.1 0-.2 0-.3.1-.1 0-.2 0-.4.1-1.2.1-2.2 0-3.3-.5-1.6-.7-2.8-2.1-3.6-4.2-.7-1.7-.8-3.2-.5-4.6.1-.3.2-.7.3-1 .2-.4.4-.8.6-1.1.7-1.1 1.8-2 3.2-2.5.4-.2.8-.3 1.2-.4.4-.1.9-.2 1.5-.3.7-.1 1.4-.1 2.1-.2.9 0 1.9-.1 2.8 0l.4-6.1c-2-.1-3.9 0-5.9.2-1.9.2-3.4.5-4.6 1-1.8.7-3.4 1.7-4.7 2.9-1.3 1.2-2.3 2.6-3 4.2-.7 1.6-1 3.3-1.1 5.1v.2c0 .6.1 1.2.1 1.7.2 1.2.5 2.4.9 3.6.7 1.8 1.7 3.3 2.9 4.6l.4.4c1.1 1.1 2.4 1.9 3.7 2.4.8.3 1.6.6 2.5.7.8.2 1.7.2 2.6.2h.3c1.7-.1 3.5-.4 5.3-1.1.6-.2 1.2-.5 2-.9s1.5-.9 2.3-1.4c.5-.3.9-.7 1.4-1 .3-.3.7-.5 1-.8.8-.7 1.5-1.4 2.2-2.1m12.3-12.2c-.9.1-1.7.1-2.6-.1-.9-.2-1.7-.6-2.4-1.1-.4-.3-.8-.6-1.1-1-.4-.4-.7-.8-.9-1.2-.4-.5-.7-1.1-.9-1.7-.4-1-.6-2-.5-3.1 0-.2 0-.4.1-.7.1-.9.4-1.7.9-2.5s1.1-1.4 1.8-1.9c.8-.5 1.6-.9 2.5-1 .9-.1 1.7-.1 2.6.1.9.2 1.7.6 2.5 1.2s1.5 1.3 2 2.2c.6.9 1 1.8 1.2 2.7.1.5.2.9.2 1.4 0 .4 0 .9-.1 1.3-.1.9-.4 1.7-.9 2.4s-1.1 1.4-1.9 1.9c-.7.6-1.6.9-2.5 1.1m11.9-9.7c-.3-1.8-1-3.4-2.1-5s-2.4-2.9-3.9-3.9c-1.4-.9-3.1-1.6-4.8-2-1.7-.3-3.4-.3-5.2.1-1.8.4-3.5 1.1-5.1 2.2-1.5 1-2.9 2.3-3.9 3.8-.2.3-.4.6-.5.9-.7 1.2-1.2 2.5-1.5 3.9-.2.8-.3 1.7-.3 2.6 0 .9.1 1.7.2 2.6 0 .2.1.3.1.5.4 1.6 1 3.1 2 4.6.6.8 1.2 1.6 1.9 2.3.6.6 1.2 1.1 1.9 1.5 1.5 1 3.1 1.6 4.8 1.9 1.7.3 3.4.3 5.1 0h.1c1.8-.3 3.4-1.1 5-2.1 1.6-1.1 2.9-2.4 3.9-3.9v-.1c1-1.5 1.7-3.1 2-4.7.2-.8.3-1.7.3-2.5.3-.9.2-1.8 0-2.7m19.8-37.3c1.3 0 2.6.6 4.1 1.8l11 8.9c1.4-1.8 2.7-3.7 4-5.6l-11.4-9.3c-2.9-2.4-5.7-3.3-8.3-3-2.6.4-5 1.8-7 4.3-.9 1.1-1.6 2.2-2.3 3.4-.6 1.1-1.1 2.2-1.5 3.3l.1.1-3.8 2.9 19.7 16c1.6-1.7 3.1-3.4 4.6-5.1l-14.8-12c.3-1.3 1.1-2.8 2.5-4.5.8-.7 1.8-1.2 3.1-1.2m-25.2 18.5l17.6 17.2c1.6-1.6 3.3-3.3 4.8-4.9l-19.7-19.2-2.7 6.9zm0-9.5c.1 2.5-1.8 4.6-4.3 4.8-2.5.1-4.6-1.8-4.8-4.3v-.2c0-2.5 2-4.6 4.5-4.6 2.4 0 4.4 1.9 4.6 4.3M193 248.6c-49.3 8.2-78.4-21.1-85.1-33.3-6.7-12.3-5.1-21.7-7.9-27.9-3.3-7.3 4.6-10.5 7.6-8.4 3 2.1.8 4.3 5 6.9 10.1 6.4 37.8 29.8 72.6 18.7 36.5-11.6 39.7-26.2 41.2-42.5 1.2-12.9 8.4-17 10.9-18.1l-2-21.7 15.6 4.7-2.7 19.1v.2s15.7 9.2 12.1 34.8c-3.1 20.9-18 59.3-67.3 67.5M180.8 75.3c-58.2 0-105.4 47.2-105.4 105.4s47.2 105.4 105.4 105.4 105.4-47.2 105.4-105.4S239 75.3 180.8 75.3"/></svg>