<svg id="Слой_1" xmlns="http://www.w3.org/2000/svg" xmlns:xlink="http://www.w3.org/1999/xlink" viewBox="0 0 314 411"><style>.st0{display:none}.st1{display:inline}.st2{clip-path:url(#SVGID_4_)}.st3{clip-path:url(#SVGID_6_);fill:#fff}.st4{clip-path:url(#SVGID_10_)}.st5{clip-path:url(#SVGID_12_);fill:#fff}.st6{clip-path:url(#SVGID_16_)}.st7{clip-path:url(#SVGID_18_);fill:#fff}.st8{fill:#f0f4f4}.st10,.st8,.st9{fill-rule:evenodd;clip-rule:evenodd}.st10{fill:#f3d632}</style><g class="st0"><g class="st1"><defs><path id="SVGID_1_" d="M0 10h303v401H0z"/></defs><clipPath id="SVGID_2_"><use xlink:href="#SVGID_1_" overflow="visible"/></clipPath><g clip-path="url(#SVGID_2_)"><image width="303" height="401" xlink:href="45F93BB3F907BF9A.png" transform="translate(0 10)" overflow="visible"/></g><defs><path id="SVGID_3_" transform="rotate(-2.001 150.997 205.006) scale(1.00001)" d="M16 20h270v370H16z"/></defs><clipPath id="SVGID_4_"><use xlink:href="#SVGID_3_" overflow="visible"/></clipPath><g class="st2"><defs><path id="SVGID_5_" d="M-218-2378h1440v8734H-218z"/></defs><clipPath id="SVGID_6_"><use xlink:href="#SVGID_5_" overflow="visible"/></clipPath><path transform="rotate(-2.001 150.998 205.006) scale(1.00001)" class="st3" d="M11 15h280v380H11z"/></g><defs><path id="SVGID_7_" d="M4 0h310v405H4z"/></defs><clipPath id="SVGID_8_"><use xlink:href="#SVGID_7_" overflow="visible"/></clipPath><g clip-path="url(#SVGID_8_)"><image width="310" height="405" xlink:href="45F93BB3F907BF99.png" transform="translate(4)" overflow="visible"/></g><defs><path id="SVGID_9_" transform="rotate(-87 159 197) scale(.99997)" d="M-26 62h370v270H-26z"/></defs><clipPath id="SVGID_10_"><use xlink:href="#SVGID_9_" overflow="visible"/></clipPath><g class="st4"><defs><path id="SVGID_11_" d="M-218-2378h1440v8734H-218z"/></defs><clipPath id="SVGID_12_"><use xlink:href="#SVGID_11_" overflow="visible"/></clipPath><path transform="rotate(-87 159 197) scale(.99997)" class="st5" d="M-31 57h380v280H-31z"/></g><defs><path id="SVGID_13_" d="M7 2h301v400H7z"/></defs><clipPath id="SVGID_14_"><use xlink:href="#SVGID_13_" overflow="visible"/></clipPath><g clip-path="url(#SVGID_14_)"><image width="301" height="400" xlink:href="45F93BB3F907BFA5.png" transform="translate(7 2)" overflow="visible"/></g><defs><path id="SVGID_15_" d="M22 12h270v370H22z"/></defs><clipPath id="SVGID_16_"><use xlink:href="#SVGID_15_" overflow="visible"/></clipPath><g class="st6"><defs><path id="SVGID_17_" d="M-218-2378h1440v8734H-218z"/></defs><clipPath id="SVGID_18_"><use xlink:href="#SVGID_17_" overflow="visible"/></clipPath><path class="st7" d="M17 7h280v380H17z"/></g></g></g><path class="st8" d="M57 104h117v5H57zm0 37h130v5H57zm0 40h60v5H57zm0-20h110v5H57zm0-10h155v5H57zm0 20h185v5H57zm135-30h54v5h-54zm-70 40h132v5H122zm-65-50h200v5H57zm160 20h37v5h-37z"/><path class="st9" d="M84.4 55.3c-.3-.3-.6-.5-.9-.6-.4-.2-.8-.2-1.2-.2-.3 0-.6 0-.8.1-.2 0-.4.1-.6.2v-3.3l-1.6.5v8.4c.5.2.9.3 1.2.4.4.1.8.1 1.2.1.5 0 1-.1 1.4-.2.4-.2.8-.4 1.1-.7.3-.3.5-.7.7-1.1.2-.4.3-.9.3-1.4 0-.4-.1-.9-.2-1.2-.2-.4-.4-.7-.6-1zm-1 3c-.1.2-.2.4-.4.6-.2.2-.3.3-.5.4-.2.1-.4.1-.7.1h-.4c-.1 0-.3-.1-.4-.1v-2.9c.2-.2.4-.3.6-.4.2-.1.4-.1.6-.1.4 0 .7.1.9.5.2.3.4.7.4 1.2 0 .2-.1.5-.1.7zm6.7-3.6c-.2-.1-.4-.2-.7-.3-.2-.1-.5-.1-.7-.1-.4 0-.8 0-1.3.1s-.9.3-1.4.6l.7 1.3c.3-.2.6-.4.9-.5.3-.1.6-.1.9-.1.2 0 .3 0 .5.2.1.1.2.2.2.4v.3c-.4 0-.7 0-1.1.1-.4.1-.7.2-1 .3s-.6.4-.8.7c-.2.3-.3.7-.3 1.2 0 .2.1.5.2.7.1.2.2.5.4.6.2.2.4.4.6.5.2.1.5.2.8.2h.9c.2 0 .3 0 .4-.1s.2 0 .3-.1l1.2.2v-4.7c0-.4-.1-.7-.2-.9-.1-.2-.3-.4-.5-.6zm-.9 4.6s-.1 0-.2.1h-.9c-.1 0-.3-.1-.4-.2s-.1-.3-.1-.4c0-.2 0-.3.1-.5.1-.1.2-.2.4-.3.1-.1.3-.1.5-.1h.6v1.4zm6-4.9c-.3 0-.7 0-1 .1-.3.1-.6.1-.8.2l-1.1-.4v6.4h1.6V56c.3-.1.7-.2 1.2-.2.3 0 .5.1.7.4.2.2.3.6.3 1v3.5h1.6V57c0-.9-.2-1.6-.7-2-.4-.4-1-.6-1.8-.6zm7.7.3c-.2-.1-.4-.2-.7-.3-.2-.1-.5-.1-.7-.1-.4 0-.8 0-1.3.1s-.9.3-1.4.6l.7 1.3c.3-.2.6-.4.9-.5.3-.1.6-.1.9-.1.2 0 .3 0 .5.2.1.1.2.2.2.4v.3c-.4 0-.7 0-1.1.1-.4.1-.7.2-1 .3s-.6.4-.8.7c-.2.3-.3.7-.3 1.2 0 .2.1.5.2.7.1.2.2.5.4.6.2.2.4.4.6.5.2.1.5.2.8.2h.9c.2 0 .3 0 .4-.1s.2 0 .3-.1l1.2.2v-4.7c0-.4-.1-.7-.2-.9-.1-.2-.3-.4-.5-.6zm-.9 4.6s-.1 0-.2.1h-.9c-.1 0-.3-.1-.4-.2-.1-.1-.1-.3-.1-.4 0-.2 0-.3.1-.5s.2-.2.4-.3c.1-.1.3-.1.5-.1h.6v1.4zm5.9-4.9c-.3 0-.7 0-1 .1-.3.1-.6.1-.8.2l-1.1-.4v6.4h1.6V56c.3-.1.7-.2 1.2-.2.3 0 .5.1.7.4.2.2.3.6.3 1v3.5h1.6V57c0-.9-.2-1.6-.7-2-.4-.4-1-.6-1.8-.6zm7.7.3c-.2-.1-.4-.2-.7-.3-.2-.1-.5-.1-.7-.1-.4 0-.8 0-1.3.1s-.9.3-1.4.6l.7 1.3c.3-.2.6-.4.9-.5.3-.1.6-.1.9-.1.2 0 .3 0 .5.2.1.1.2.2.2.4v.3c-.4 0-.7 0-1.1.1-.4.1-.7.2-1 .3-.3.2-.6.4-.8.7-.2.3-.3.7-.3 1.2 0 .2.1.5.2.7.1.2.2.5.4.6.2.2.4.4.6.5.2.1.5.2.8.2h.9c.2 0 .3 0 .4-.1s.2 0 .3-.1l1.2.2v-4.7c0-.4-.1-.7-.2-.9-.1-.2-.2-.4-.5-.6zm-.9 4.6s-.1 0-.2.1h-.9c-.1 0-.3-.1-.4-.2s-.1-.3-.1-.4c0-.2 0-.3.1-.5.1-.1.2-.2.4-.3.1-.1.3-.1.5-.1h.6v1.4zm6.7 0c-.3.1-.5.1-.7.1-.5 0-.9-.2-1.2-.5-.3-.3-.4-.7-.4-1.3 0-.5.1-1 .4-1.3.3-.3.7-.5 1.2-.5h.3c.1 0 .2 0 .4.1.1 0 .3.1.5.1.2.1.4.1.6.2l.6-1.3c-.4-.2-.9-.4-1.3-.5-.4-.1-.8-.2-1.1-.2-.5 0-.9.1-1.3.2-.4.2-.8.4-1 .7-.3.3-.5.6-.7 1-.2.4-.2.9-.2 1.3 0 .5.1.9.2 1.3.2.4.4.7.7 1 .3.3.6.5 1 .7.4.2.9.2 1.3.2h.5c.2 0 .4-.1.6-.1.2-.1.5-.1.7-.2.2-.1.5-.2.7-.3l-.7-1.3c-.4.4-.8.5-1.1.6zm7.6-3.9c-.3-.3-.6-.5-1-.7-.4-.2-.8-.2-1.3-.2s-.9.1-1.3.2c-.4.2-.7.4-1 .7-.3.3-.5.6-.7 1-.2.4-.3.8-.3 1.3s.1.9.3 1.3c.2.4.4.7.7 1 .3.3.6.5 1 .7s.8.2 1.3.2.9-.1 1.3-.2.8-.4 1-.7c.3-.3.5-.6.7-1 .2-.4.3-.8.3-1.3s-.1-.9-.3-1.3c-.2-.4-.4-.7-.7-1zm-.9 3l-.3.6c-.1.2-.3.3-.5.4-.2.1-.4.1-.6.1-.2 0-.4 0-.6-.1-.2-.1-.4-.2-.5-.4-.1-.2-.3-.3-.3-.6-.1-.2-.1-.4-.1-.7s0-.5.1-.7l.3-.6c.1-.2.3-.3.5-.4.2-.1.4-.1.6-.1.2 0 .4 0 .6.1.2.1.4.2.5.4.1.2.3.3.3.6.1.2.1.4.1.7s0 .5-.1.7zm10.4-3.3c-.5-.4-1.1-.7-1.9-.7-.3 0-.7 0-1 .1-.3.1-.6.1-.8.2l-1.1-.4v6.4h1.6V56c.3-.1.7-.2 1.2-.2.3 0 .5.1.7.4.2.2.3.6.3 1v3.5h1.6V57c.1-.8-.2-1.5-.6-1.9zm-7.8 5.7h1.7v-6.5l-1.7.5z"/><ellipse transform="rotate(-46.914 131.564 52.833)" class="st9" cx="131.6" cy="52.8" rx="1" ry="1"/><path class="st10" d="M76.2 57.6c0 5.3-4.3 9.6-9.6 9.6S57 62.9 57 57.6s4.3-9.6 9.6-9.6 9.6 4.3 9.6 9.6"/><path class="st9" d="M66.6 50.2c-4.1 0-7.4 3.3-7.4 7.4 0 4.1 3.3 7.4 7.4 7.4 4.1 0 7.4-3.3 7.4-7.4 0-4.1-3.3-7.4-7.4-7.4m.8 12.1c-3.4.6-5.5-1.5-6-2.3-.5-.9-.4-1.5-.6-1.9-.2-.5.3-.7.5-.6.2.1.1.3.3.5.7.5 2.6 2.1 5.1 1.3 2.6-.8 2.8-1.8 2.9-3 .1-.9.6-1.2.8-1.3l-.1-1.5 1.1.3-.2 1.3s1.1.6.8 2.4c-.1 1.5-1.1 4.2-4.6 4.8"/></svg>