<svg id="Слой_1" xmlns="http://www.w3.org/2000/svg" viewBox="0 0 30 30"><style>.st0{fill:#fff}</style><path class="st0" d="M12.3 15.9h1.2l-.6-1.7z"/><path class="st0" d="M15 7.3c-5.5 0-10 3.5-10 7.9 0 2.8 1.9 5.3 4.7 6.7-.2.5-1 3.4-1 3.6 0 0 0 .2.1.2.1.1.2 0 .2 0 .3 0 3.6-2.4 4.2-2.8.6.1 1.2.1 1.8.1 5.5 0 10-3.5 10-7.9 0-4.3-4.5-7.8-10-7.8zm-5 10.1c0 .3-.3.6-.6.6s-.6-.2-.6-.6V14H8c-.3 0-.6-.3-.6-.6s.3-.6.6-.6h3c.3 0 .6.3.6.6s-.3.6-.6.6h-1v3.4zm4.9.4c-.1.1-.2.1-.4.1s-.4-.1-.5-.3l-.3-.7h-1.8l-.3.7c-.1.2-.2.3-.5.3-.1 0-.3 0-.4-.1-.2-.1-.3-.3-.1-.8l1.4-3.6c.1-.3.4-.6.8-.6s.7.3.8.6L15 17c.2.5.1.7-.1.8zm2.9 0H16c-.3 0-.6-.2-.6-.5v-3.9c0-.3.3-.6.6-.6s.6.3.6.6v3.4h1.2c.3 0 .6.2.6.5s-.3.5-.6.5zm4.5-.4c0 .2-.1.3-.2.4-.1.1-.2.1-.3.1-.2 0-.4-.1-.5-.2l-1.4-1.8-.2.2v1.3c0 .3-.3.6-.6.6s-.6-.3-.6-.6v-3.9c0-.3.3-.6.6-.6s.6.3.6.6v1.2l1.6-1.6c.1-.1.2-.1.3-.1.1 0 .3.1.4.2.1.1.2.2.2.4 0 .1 0 .3-.1.4l-1.3 1.3 1.4 1.9c.1-.1.2 0 .1.2z"/></svg>