<svg id="Слой_1" xmlns="http://www.w3.org/2000/svg" viewBox="0 0 60 60"><style>.st0{opacity:.9;fill-rule:evenodd;clip-rule:evenodd;fill:#fff}</style><path class="st0" d="M35.7 28.7l1.9-1-.8-4 1.5 3.7 1.3-.7v-4.8l.7 4.4 3.8-2V21l.7 3 7.2-3.8s-6-5.1-14.1-1.2c-2.6 1.2-4.3 3-5.4 4.8.3-2.2.1-4.9-1.6-7.7-4.2-6.8-11.1-6-11.1-6l2 3.6H25l-2.9.6 1.3 2.4 3.4-1.1-3 1.8 3.2 5.7c-.8-.8-1.8-1.5-3.1-2.1-7.2-3.4-12.5 1.1-12.5 1.1l3.1 1.6 3.3-1.7-2.2 2.2L19 26l1.5-3.1-.7 3.5 3.3 1.7c-1.5 0-3.2.3-5 1.1-7.2 3.4-7.1 10.4-7.1 10.4l4.1-1.8v-3.2l.6 3 3.2-1.4.7-4.3v4l3.4-1.4-.6-2.6 1.2 2.4 5.7-2.4L28 61h4.5l-.9-29.4 4.8 3.8 2.9-1.9-2.2 2.5 3.1 2.4 2.1-2.8-1.3 3.3 5.5 4.3s2-7.5-4.5-12.1c-2.3-1.6-4.4-2.2-6.3-2.4z"/></svg>