<?xml version="1.0" encoding="utf-8"?>
<!-- Generator: Adobe Illustrator 21.1.0, SVG Export Plug-In . SVG Version: 6.00 Build 0)  -->
<svg version="1.1" id="Слой_1" xmlns="http://www.w3.org/2000/svg" xmlns:xlink="http://www.w3.org/1999/xlink" x="0px" y="0px"
	 viewBox="0 0 22 22" style="enable-background:new 0 0 22 22;" xml:space="preserve">
<style type="text/css">
	.st0{fill-rule:evenodd;clip-rule:evenodd;fill:#FFFFFF;}
	.st1{fill-rule:evenodd;clip-rule:evenodd;}
</style>
<path class="st0" d="M21.7,11.2l-1.1,1.6c-0.3,0.5-0.5,1.1-0.4,1.7l0.2,1.9c0.1,0.8-0.4,1.6-1.2,1.8l-1.8,0.5
	c-0.6,0.2-1.1,0.5-1.4,1l-1.1,1.6c-0.5,0.7-1.4,0.9-2.1,0.6L11,21c-0.5-0.2-1.1-0.3-1.7-0.1l-1.8,0.5c-0.8,0.2-1.6-0.2-2-0.9
	l-0.8-1.7c-0.3-0.5-0.7-1-1.2-1.2l-1.7-0.8c-0.8-0.3-1.2-1.2-1-2L1.2,13c0.1-0.6,0.1-1.2-0.2-1.7L0.2,9.5C-0.2,8.8,0,7.9,0.7,7.4
	l1.5-1.1c0.5-0.3,0.8-0.8,1-1.4L3.7,3c0.2-0.8,1-1.3,1.8-1.3l1.9,0.1C8,2,8.6,1.8,9.1,1.4l1.5-1.1c0.7-0.5,1.6-0.4,2.2,0.2l1.4,1.3
	c0.4,0.4,1,0.7,1.6,0.7l1.9,0.1c0.8,0.1,1.5,0.7,1.6,1.5l0.2,1.9c0.1,0.6,0.3,1.1,0.7,1.6L21.5,9C22.1,9.6,22.2,10.5,21.7,11.2
	L21.7,11.2z"/>
<path class="st1" d="M15.5,6.7L8.3,16H6.5l7.3-9.3H15.5z M9.8,9c0-0.2,0-0.3-0.1-0.5S9.5,8.3,9.4,8.1C9.3,8,9.2,8,9,7.9
	C8.9,7.8,8.7,7.8,8.6,7.8c-0.2,0-0.3,0-0.5,0.1C8,8,7.8,8,7.7,8.2C7.6,8.3,7.5,8.4,7.5,8.5C7.4,8.7,7.4,8.8,7.4,9
	c0,0.2,0,0.3,0.1,0.5c0.1,0.1,0.2,0.3,0.3,0.4C7.8,10,8,10.1,8.1,10.1c0.1,0.1,0.3,0.1,0.5,0.1c0.2,0,0.3,0,0.5-0.1
	C9.2,10,9.3,10,9.4,9.8c0.1-0.1,0.2-0.2,0.3-0.4C9.7,9.3,9.8,9.2,9.8,9z M11,9c0,0.3-0.1,0.7-0.2,1c-0.1,0.3-0.3,0.6-0.5,0.8
	c-0.2,0.2-0.5,0.4-0.8,0.5c-0.3,0.1-0.6,0.2-0.9,0.2s-0.7-0.1-1-0.2c-0.3-0.1-0.6-0.3-0.8-0.5c-0.2-0.2-0.4-0.5-0.5-0.8
	C6.2,9.7,6.1,9.3,6.1,9s0.1-0.7,0.2-1c0.1-0.3,0.3-0.6,0.5-0.8C7.1,7,7.3,6.9,7.6,6.7c0.3-0.1,0.6-0.2,1-0.2s0.7,0.1,0.9,0.2
	c0.3,0.1,0.6,0.3,0.8,0.5c0.2,0.2,0.4,0.5,0.5,0.8C11,8.3,11,8.7,11,9z M14.9,13.6c0-0.2,0-0.3-0.1-0.5c-0.1-0.1-0.2-0.3-0.3-0.4
	c-0.1-0.1-0.2-0.2-0.4-0.3s-0.3-0.1-0.5-0.1c-0.2,0-0.3,0-0.5,0.1c-0.1,0.1-0.3,0.2-0.4,0.3c-0.1,0.1-0.2,0.2-0.3,0.4
	c-0.1,0.1-0.1,0.3-0.1,0.5c0,0.2,0,0.3,0.1,0.5c0.1,0.1,0.1,0.3,0.3,0.4c0.1,0.1,0.2,0.2,0.4,0.3c0.1,0.1,0.3,0.1,0.5,0.1
	c0.2,0,0.3,0,0.5-0.1s0.3-0.1,0.4-0.3c0.1-0.1,0.2-0.2,0.3-0.4C14.8,13.9,14.9,13.8,14.9,13.6z M16.1,13.6c0,0.3-0.1,0.7-0.2,1
	c-0.1,0.3-0.3,0.6-0.5,0.8c-0.2,0.2-0.5,0.4-0.8,0.5c-0.3,0.1-0.6,0.2-1,0.2s-0.7-0.1-1-0.2c-0.3-0.1-0.6-0.3-0.8-0.5
	c-0.2-0.2-0.4-0.5-0.5-0.8c-0.1-0.3-0.2-0.6-0.2-1c0-0.3,0.1-0.7,0.2-1c0.1-0.3,0.3-0.6,0.5-0.8s0.5-0.4,0.8-0.5
	c0.3-0.1,0.6-0.2,1-0.2s0.7,0.1,1,0.2c0.3,0.1,0.6,0.3,0.8,0.5s0.4,0.5,0.5,0.8C16.1,13,16.1,13.3,16.1,13.6z"/>
</svg>
