<?xml version="1.0" encoding="UTF-8"?>
<svg width="97px" height="100px" viewBox="0 0 97 100" version="1.1" xmlns="http://www.w3.org/2000/svg" xmlns:xlink="http://www.w3.org/1999/xlink">
    <!-- Generator: Sketch 44.1 (41455) - http://www.bohemiancoding.com/sketch -->
    <title>noun_963715_cc</title>
    <desc>Created with Sketch.</desc>
    <defs></defs>
    <g id="Page-1" stroke="none" stroke-width="1" fill="none" fill-rule="evenodd">
        <g id="noun_963715_cc" fill-rule="nonzero" stroke="#FFFFFF" stroke-width="2" fill="#BABABA">
            <g id="Group">
                <g transform="translate(0.736377, 0.589102)" id="Shape">
                    <g transform="translate(31.811487, 0.000000)">
                        <path d="M19.1169367,30.4471281 C17.9222386,30.4471281 16.9148748,29.524595 16.8282769,28.3139912 L15.060972,3.58232695 C14.9708395,2.31693667 15.9234168,1.21767305 17.1888071,1.1257732 C18.4418262,1.03917526 19.553461,1.98645066 19.6453608,3.25360825 L21.4126657,27.9852725 C21.5027982,29.2506627 20.5502209,30.3499264 19.2848306,30.4418262 C19.2265096,30.4453608 19.1717231,30.4471281 19.1169367,30.4471281 Z"></path>
                        <path d="M30.6715758,32.1048601 C30.4064801,32.1048601 30.1343152,32.0589102 29.8709867,31.9599411 C28.6815906,31.5181149 28.075405,30.1944035 28.5172312,29.0050074 L31.4863034,21.0150221 C31.9281296,19.8256259 33.2553756,19.2159057 34.4394698,19.6612666 C35.628866,20.1030928 36.2350515,21.4250368 35.7932253,22.6162003 L32.8241532,30.6061856 C32.481296,31.5322533 31.6047128,32.1048601 30.6715758,32.1048601 Z"></path>
                        <path d="M8.44771723,33.6901325 C7.60294551,33.6901325 6.78998527,33.2235641 6.38880707,32.4159057 L1.12400589,21.8226804 C0.558468336,20.6845361 1.02150221,19.3060383 2.15787923,18.742268 C3.29602356,18.1767305 4.67275405,18.6397644 5.23829161,19.7761414 L10.5030928,30.3693667 C11.0686303,31.507511 10.6055965,32.8860088 9.46921944,33.4497791 C9.14050074,33.6159057 8.79234168,33.6901325 8.44771723,33.6901325 Z"></path>
                    </g>
                    <path d="M49.2830633,69.2553756 C48.0759941,68.1313697 46.4977909,67.5693667 44.8559647,67.6029455 C43.2070692,67.6630339 41.6818851,68.3611193 40.5578792,69.5681885 L39.1316642,71.0986745 L43.9281296,49.9122239 C44.6756996,46.591458 42.5867452,43.2777614 39.2659794,42.5231222 C38.4689249,42.3428571 37.6718704,42.3375552 36.910162,42.4630339 C36.6539028,39.889838 34.8141384,37.6418262 32.1561119,37.0409426 C29.5405007,36.4559647 26.9531664,37.6382916 25.5923417,39.7820324 C25.0285714,39.4391753 24.4206186,39.1634757 23.7596465,39.0132548 C20.4441826,38.2621502 17.1234168,40.3511046 16.3705449,43.6736377 L16.2945508,44.0076583 C15.8032401,43.739028 15.2836524,43.5092784 14.7092784,43.3784978 C11.3849779,42.6291605 8.0730486,44.7181149 7.33784978,47.9646539 C7.30250368,48.0989691 3.81030928,61.4933726 1.50220913,71.692489 C-0.922533137,82.4111929 0.922533137,89.3266568 1.00382916,89.6147275 C1.28483063,90.6326951 2.20913108,91.3025037 3.21649485,91.3025037 C3.4197349,91.3025037 3.62474227,91.2742268 3.82974963,91.217673 C5.05272459,90.8818851 5.77201767,89.6164948 5.43269514,88.3917526 C5.4167894,88.3316642 3.81207658,82.3139912 5.98409426,72.7069219 C8.27452135,62.5820324 11.7490427,49.2565538 11.8020619,49.0515464 C11.9946981,48.2014728 12.8412371,47.6712813 13.6913108,47.8586156 C14.5413844,48.0512518 15.0768778,48.8995582 14.8842415,49.7478645 C14.8418262,49.9316642 14.8683358,50.1119293 14.8718704,50.295729 L12.0282769,62.8612666 C11.7490427,64.09838 12.5248895,65.3284242 13.7620029,65.6094256 C13.9334315,65.6483063 14.1030928,65.6659794 14.2709867,65.6659794 C15.3207658,65.6659794 16.2680412,64.9431517 16.510162,63.8756996 L20.85243,44.689838 C21.0450663,43.8379971 21.9004418,43.3007364 22.7452135,43.4933726 C23.1569956,43.5870398 23.5069219,43.8344624 23.733137,44.1932253 C23.9558174,44.5466863 24.0282769,44.9673049 23.9381443,45.3755523 L19.594109,64.5755523 C19.3148748,65.8126657 20.0907216,67.0427099 21.3278351,67.3237113 C22.5667158,67.6135493 23.7949926,66.8270987 24.0759941,65.5917526 L28.4129602,46.4164948 C28.4147275,46.4111929 28.4164948,46.4076583 28.4164948,46.4041237 C28.4164948,46.3988218 28.4164948,46.3952872 28.4182622,46.3917526 L29.2488954,42.7210604 C29.443299,41.8709867 30.2880707,41.3354934 31.1434462,41.5228277 C31.9917526,41.7154639 32.5254786,42.5655376 32.3328424,43.4138439 L27.1528719,66.2880707 C26.8736377,67.5251841 27.6494845,68.7552283 28.8865979,69.0362297 C28.9731959,69.0574374 29.0597938,69.0556701 29.1446244,69.0662739 C29.1888071,69.0786451 29.2223859,69.1104566 29.2683358,69.1210604 C30.5089838,69.414433 31.7372607,68.626215 32.0164948,67.3891016 L36.3587629,48.2050074 C36.5531664,47.3549337 37.4014728,46.8159057 38.2480118,47.0067747 C39.0980854,47.1994109 39.6335788,48.0512518 39.4427099,48.8995582 L32.7746686,78.353461 C32.753461,78.4453608 32.7782032,78.5337261 32.7693667,78.6238586 C32.7481591,78.8076583 32.7340206,78.9808542 32.7569956,79.1628866 C32.7693667,79.2565538 32.7958763,79.3431517 32.8206186,79.4315169 C32.8718704,79.6400589 32.9407953,79.8362297 33.0503682,80.0253314 C33.0821797,80.0783505 33.1210604,80.1243004 33.1564065,80.173785 C33.2500736,80.3098675 33.3189985,80.4583211 33.4444772,80.5767305 C33.5081001,80.6368189 33.5911635,80.6580265 33.6583211,80.707511 C33.6795287,80.7234168 33.704271,80.7357879 33.7272459,80.7499264 C33.971134,80.9178203 34.2273932,81.0344624 34.5030928,81.0980854 C34.5048601,81.0980854 34.5066274,81.0998527 34.5083947,81.0998527 C34.5207658,81.10162 34.5313697,81.10162 34.5437408,81.1033873 C35.1516937,81.228866 35.7720177,81.1051546 36.2969072,80.7410898 C36.3675994,80.6933726 36.4382916,80.64919 36.5019146,80.5944035 C36.5620029,80.5431517 36.6344624,80.5184094 36.6892489,80.4600884 L43.9175258,72.6980854 C44.2055965,72.3888071 44.5961708,72.2103093 45.0185567,72.1944035 C45.4480118,72.2032401 45.8403535,72.330486 46.1496318,72.6150221 C46.7876289,73.2088365 46.822975,74.2108984 46.2715758,74.8064801 C44.7393225,76.3670103 31.240648,90.1802651 29.211782,94.3458027 C28.6568483,95.4874816 29.130486,96.8624448 30.2721649,97.4173785 C30.5955817,97.5746686 30.9384389,97.6506627 31.2759941,97.6506627 C32.1278351,97.6488954 32.9460972,97.1734904 33.3437408,96.3587629 C34.6250368,93.7272459 43.9634757,83.7172312 49.594109,77.982327 C51.9163476,75.4886598 51.7749632,71.5723122 49.2830633,69.2553756 Z"></path>
                    <g transform="translate(45.949926, 37.113402)">
                        <path d="M45.9835052,30.6927835 C42.3428571,20.8948454 37.0992636,8.08365243 37.0745214,8.02533137 C35.8886598,4.83888071 32.3328424,3.20765832 29.1340206,4.38821797 C28.5826215,4.59322533 28.0966127,4.89013255 27.6441826,5.22592047 L27.5240059,4.90073638 C26.9478645,3.35257732 25.8044183,2.12253314 24.3039764,1.43681885 C22.8053019,0.751104566 21.1281296,0.689248895 19.5888071,1.26362297 C18.95081,1.50044183 18.3835052,1.8539028 17.8674521,2.26745214 C16.2379971,0.325184094 13.5163476,-0.50544919 10.9997054,0.422385862 C8.44771723,1.37142857 6.92253314,3.84035346 7.00559647,6.42238586 C6.22268041,6.3994109 5.43622975,6.52488954 4.68335788,6.80765832 C3.13519882,7.37849779 1.90338733,8.52194404 1.21590574,10.0206186 C0.528424153,11.5192931 0.464801178,13.1964654 1.03917526,14.7446244 L9.85802651,38.4583211 C9.72371134,38.5643594 9.57525773,38.6438881 9.46391753,38.7817378 C8.65802651,39.762592 8.8011782,41.2100147 9.7802651,42.0159057 L12.2509573,44.0447717 C12.4047128,44.1720177 15.2818851,46.55081 18.8147275,46.55081 C19.8061856,46.55081 20.8506627,46.3634757 21.9004418,45.8863034 C23.0562592,45.3614138 23.565243,43.9988218 23.0421208,42.8430044 C22.5154639,41.687187 21.1546392,41.1782032 19.9988218,41.7013255 C18.4064801,42.4223859 16.4977909,41.3902798 15.6424153,40.8318115 L5.3460972,13.1434462 C5.1994109,12.74757 5.21531664,12.3181149 5.39204713,11.9346097 C5.56701031,11.5511046 5.88159057,11.2594993 6.28453608,11.1110457 C6.68041237,10.9608247 7.10633284,10.9802651 7.48807069,11.153461 C7.87157585,11.3301915 8.16318115,11.6447717 8.31163476,12.0424153 L15.1670103,30.4789396 C15.6088365,31.6683358 16.9325479,32.2727541 18.1201767,31.8326951 C18.1802651,31.8097202 18.2191458,31.7637703 18.2756996,31.7354934 C18.3463918,31.716053 18.4170839,31.7231222 18.4860088,31.69838 C19.675405,31.2565538 20.2815906,29.9328424 19.8397644,28.7434462 L11.669514,6.76170839 C11.3655376,5.94521355 11.7826215,5.03151694 12.597349,4.73107511 C13.4120766,4.43063328 14.3293078,4.84594993 14.6315169,5.66067747 L15.9428571,9.18998527 C15.9446244,9.19528719 15.9446244,9.1988218 15.9463918,9.20235641 C15.9463918,9.20412371 15.9481591,9.20589102 15.9499264,9.20765832 L22.8017673,27.6424153 C23.2435935,28.8318115 24.5673049,29.4415317 25.756701,28.9961708 C26.9460972,28.5543446 27.5522828,27.2306333 27.1104566,26.0412371 L20.2533137,7.59764359 C20.1083947,7.20353461 20.1243004,6.77761414 20.2992636,6.39410898 C20.4759941,6.01060383 20.7888071,5.72076583 21.188218,5.57231222 C21.582327,5.42385862 22.0100147,5.44153166 22.3935199,5.61472754 C22.777025,5.79145803 23.0703976,6.10427099 23.2170839,6.50191458 L30.0706922,24.9490427 C30.4153166,25.8733432 31.2918999,26.4477172 32.2250368,26.4477172 C32.4901325,26.4477172 32.7622975,26.4017673 33.0256259,26.3027982 C34.2150221,25.860972 34.8212077,24.539028 34.3793814,23.3478645 L29.8904271,11.2683358 C29.8692194,11.0863034 29.8709867,10.9060383 29.8055965,10.7275405 C29.5033873,9.91104566 29.9204713,8.99734904 30.7334315,8.69690722 C31.5481591,8.39116348 32.4653903,8.80824742 32.7958763,9.69720177 C32.8488954,9.82444772 38.0642121,22.5667158 41.6765832,32.2939617 C45.0715758,41.4309278 44.3151694,47.7154639 44.3081001,47.7684831 C44.1366716,49.0250368 45.0167894,50.1826215 46.2733432,50.3558174 C46.3793814,50.3699558 46.4836524,50.377025 46.5879234,50.377025 C47.7189985,50.377025 48.7033873,49.5428571 48.8624448,48.3905744 C48.9013255,48.0936672 49.8114875,40.9979381 45.9835052,30.6927835 Z"></path>
                        <path d="M7.63829161,44.2020619 C6.65036819,43.4050074 5.20294551,43.5658321 4.40765832,44.5502209 C3.61237113,45.5399116 3.76789396,46.985567 4.75758468,47.7808542 C14.5519882,55.6630339 17.066863,58.428866 17.6960236,59.3779087 C18.1378498,60.0441826 18.869514,60.4047128 19.611782,60.4047128 C20.0483063,60.4047128 20.4901325,60.2827688 20.8789396,60.022975 C21.9375552,59.3213549 22.2256259,57.8951399 21.5240059,56.8365243 C20.6332842,55.4933726 18.2244477,52.7204713 7.63829161,44.2020619 Z"></path>
                        <path d="M22.3705449,35.4980854 C21.3967599,35.565243 20.6615611,36.4100147 20.7287187,37.3820324 C20.7958763,38.3558174 21.6318115,39.0574374 22.6126657,39.0256259 C29.2082474,38.5184094 35.4167894,47.8745214 35.4786451,47.9699558 C35.8179676,48.4842415 36.3817378,48.7634757 36.9561119,48.7634757 C37.2901325,48.7634757 37.6276878,48.6680412 37.9263623,48.4701031 C38.7410898,47.9328424 38.9655376,46.8388807 38.4300442,46.0241532 C38.1313697,45.5699558 30.9879234,34.9060383 22.3705449,35.4980854 Z"></path>
                    </g>
                </g>
            </g>
        </g>
    </g>
</svg>