<?xml version="1.0" encoding="utf-8"?>
<!-- Generator: Adobe Illustrator 21.1.0, SVG Export Plug-In . SVG Version: 6.00 Build 0)  -->
<svg version="1.1" id="Слой_1" xmlns="http://www.w3.org/2000/svg" xmlns:xlink="http://www.w3.org/1999/xlink" x="0px" y="0px"
	 viewBox="0 0 362 362" style="enable-background:new 0 0 362 362;" xml:space="preserve">
<path d="M75.7,266.2c-0.4,1.6-1.4,3-3.1,4.2c-0.9,0.7-1.9,1.1-2.9,1.4c-0.9,0.3-1.9,0.4-2.9,0.3c-0.2,0-0.5-0.1-0.7-0.1
	c-1.2-0.2-2.3-0.8-3.1-1.6c0,0,0,0-0.1,0c-0.4-0.3-0.7-0.7-1-1.1c-0.3-0.5-0.6-0.9-0.9-1.5c-0.3-0.5-0.5-1.1-0.8-1.7l9.9-7.3
	c0.6,0.2,1.1,0.4,1.6,0.6c0,0,0.1,0,0.1,0c0.4,0.2,0.8,0.4,1.1,0.6c0.2,0.2,0.5,0.4,0.7,0.6c0.4,0.4,0.8,0.8,1.2,1.3
	C75.9,263.2,76.1,264.6,75.7,266.2z M86.7,246.6l-5.7-4.3l-28.3,20.9c0.3,1.1,0.5,2.1,0.8,3.1c0.2,0.8,0.5,1.5,0.8,2.2
	c0.6,1.5,1.4,2.9,2.5,4.3c1.3,1.8,2.8,3.2,4.4,4.3c0,0,0,0,0,0c0.3,0.2,0.6,0.4,0.9,0.5c1.2,0.7,2.4,1.1,3.7,1.4
	c0.1,0,0.2,0.1,0.4,0.1c0.1,0,0.1,0,0.2,0c1.7,0.2,3.4,0.1,5.2-0.3c1.8-0.5,3.6-1.3,5.3-2.6c1.5-1.1,2.7-2.4,3.6-3.8
	c0.9-1.4,1.5-2.9,1.7-4.4c0.3-1.5,0.2-3.1-0.2-4.7c-0.4-1.6-1.1-3.1-2.2-4.5c-0.5-0.7-1-1.3-1.6-1.9c-0.2-0.2-0.3-0.3-0.5-0.5
	c-0.1-0.1-0.2-0.2-0.3-0.2c-0.6-0.5-1.2-0.9-1.8-1.3L86.7,246.6L86.7,246.6L86.7,246.6z M82.7,291.2c0-0.6,0.3-1.2,0.7-1.8
	c0.5-0.6,1.1-0.9,1.7-1.1c0.5-0.1,0.9-0.1,1.4,0c0.2,0,0.3,0.1,0.5,0.1c0.7,0.2,1.3,0.5,1.9,1c0.6,0.4,1.3,0.9,1.9,1.5l-3.7,4.3h0
	c-0.3-0.1-0.5-0.2-0.7-0.4c-0.3-0.2-0.7-0.4-1-0.6c-0.3-0.2-0.7-0.5-1-0.7c-0.3-0.2-0.6-0.5-0.9-0.7
	C82.9,292.4,82.7,291.8,82.7,291.2L82.7,291.2 M102.3,283.3c-0.3-1-0.7-1.9-1.3-2.8c-0.6-0.8-1.2-1.5-1.9-2.1
	c-1.3-1.1-2.8-2.1-4.5-3.1c-1.7-1-3.7-1.6-5.9-2h0l-1.5,6c1.1,0.1,2.2,0.3,3.2,0.6c0.4,0.1,0.7,0.3,1.1,0.4c1.3,0.6,2.4,1.2,3.2,2
	c0.6,0.5,1,1.1,1,1.7c0.1,0.6-0.1,1.2-0.5,1.7l-0.7,0.8h0c-1.2-1-2.4-2-3.7-2.8c-1.3-0.9-2.7-1.5-4.2-1.8c-1.4-0.3-2.9-0.3-4.3,0.1
	c-1.4,0.4-2.8,1.3-4.1,2.8c-0.7,0.8-1.2,1.7-1.5,2.7c-0.3,1-0.4,2.1-0.4,3.2c0,1.1,0.3,2.2,0.7,3.2c0,0,0,0.1,0.1,0.1
	c0.4,1,1.1,1.9,1.9,2.6c0.4,0.4,0.9,0.8,1.4,1.2c0.5,0.4,1.1,0.8,1.6,1.2s1,0.7,1.5,1c0.5,0.3,4.8,3.7,5.1,3.9l0,0l12-13.9
	c1-1.2,1.6-2.3,1.8-3.5C102.6,285.3,102.6,284.3,102.3,283.3 M127.6,300.3c-0.9-2.5-2.7-4.5-5.6-6.1c-1.2-0.6-2.5-1.2-3.8-1.6
	c-1.1-0.4-2.3-0.6-3.5-0.8l-0.1,0.1l-3.5-3.4l-12.1,22.6c1.9,1.2,3.9,2.4,5.9,3.5l9-16.8c1.3,0,2.9,0.6,4.8,1.6
	c1.1,0.6,1.8,1.5,2,2.7c0.2,1.2-0.1,2.7-1,4.4l-6.7,12.5c2.1,1,4.1,2,6.2,2.9l6.9-12.9C128.1,305.7,128.5,302.8,127.6,300.3
	 M143.4,324.4c-0.4,0-0.8-0.1-1.1-0.1c-0.4-0.1-0.8-0.1-1.3-0.2c-0.4-0.1-0.8-0.2-1.2-0.3l0,0c0,0,0,0,0,0c-0.6-0.2-1-0.5-1.2-1.1
	c-0.3-0.6-0.3-1.2-0.1-1.9c0.2-0.7,0.6-1.3,1-1.7c0.5-0.4,1.1-0.6,1.7-0.7c0.7-0.1,1.4-0.1,2.1,0c0.8,0.1,1.5,0.3,2.3,0.5h0
	c0,0,0,0,0,0l-1.5,5.5C143.9,324.4,143.6,324.4,143.4,324.4 M154.4,310c-0.3-1.1-0.8-2.1-1.5-2.9c-0.7-0.8-1.5-1.4-2.4-1.9
	c-0.8-0.5-1.7-0.8-2.6-1.1c-1.6-0.4-3.4-0.7-5.3-0.9c-1.9-0.2-4,0.1-6.2,0.7l1.2,6.1c1.4-0.5,2.8-0.8,4.2-0.9c1.4,0,2.7,0.1,3.8,0.4
	l0,0c0.8,0.2,1.3,0.6,1.7,1.1c0.3,0.5,0.4,1.1,0.3,1.7l-0.3,1.1c-1.5-0.4-3-0.7-4.6-0.9c-1.6-0.2-3.1-0.2-4.6,0.1
	c-1.4,0.3-2.8,1-3.9,1.9c-1.1,1-2,2.4-2.5,4.3c-0.3,1-0.3,2-0.2,3.1c0.2,1.1,0.5,2.1,1,3.1c0.5,1,1.2,1.9,2,2.6c0,0,0.1,0,0.1,0.1
	c0.8,0.7,1.8,1.2,2.8,1.5c1.8,0.5,3.7,0.9,5.6,1.1c0.6,0.1,5.9,1.3,6.3,1.3l4.9-17.6C154.6,312.4,154.6,311.1,154.4,310 M183,311.6
	c-1.9-1.9-4.4-2.9-7.6-3.1c-1.4-0.1-2.7,0-4.1,0.2c-1.2,0.2-2.4,0.4-3.5,0.8l0,0.1l-4.6-1.8l-1.3,25.8c2.3,0.3,4.5,0.5,6.8,0.7
	l0.9-19c1.2-0.5,2.9-0.8,5-0.6c1.3,0.1,2.3,0.6,3,1.6c0.7,1,1,2.5,0.9,4.4l-0.7,14.1c0.9,0,1.9,0,2.8,0c1.4,0,2.7,0,4.1-0.1
	l0.7-14.7C185.7,316.3,184.9,313.5,183,311.6 M201.6,324.5C201.6,324.5,201.6,324.5,201.6,324.5c0.1-0.4,0.1-0.7,0.2-0.9
	c0-0.1,0.1-0.2,0.2-0.3c0.3-0.4,0.6-0.8,1-1.1c0.6-0.4,1.2-0.7,1.9-0.9c0.7-0.2,1.5-0.4,2.3-0.6l1.1,5.6v0c-0.2,0.1-0.5,0.3-0.7,0.4
	c-0.3,0.1-0.7,0.3-1.1,0.4c-0.4,0.1-0.8,0.3-1.2,0.4c-0.4,0.1-0.8,0.2-1.2,0.3c-0.4,0.1-0.9,0-1.2-0.2c-0.1-0.1-0.3-0.2-0.4-0.3
	c-0.2-0.2-0.4-0.4-0.5-0.6c-0.2-0.3-0.4-0.7-0.4-1.1C201.6,325.2,201.6,324.9,201.6,324.5L201.6,324.5z M212.7,312.4
	c0-0.1-0.1-0.3-0.1-0.4c-0.2-0.9-0.5-1.8-1-2.4c-0.2-0.3-0.3-0.5-0.5-0.7c-0.2-0.2-0.3-0.3-0.5-0.5c-0.6-0.6-1.3-1.1-2.1-1.4
	c-1-0.4-2-0.6-3-0.6c-1,0-2,0-2.8,0.2c-1.7,0.3-3.4,0.9-5.2,1.6c-1.6,0.7-3.2,1.7-4.7,3c-0.2,0.2-0.4,0.3-0.6,0.5l3.8,4.9
	c1-1.1,2.2-2,3.4-2.7c1.2-0.7,2.4-1.1,3.6-1.3c0.8-0.2,1.5-0.1,2,0.2c0.5,0.3,0.9,0.8,1,1.4l0.2,1.1v0c-1.5,0.3-3,0.7-4.5,1.2
	c-1.5,0.5-2.9,1.2-4,2.2c-1.1,0.9-2,2.1-2.6,3.4c-0.4,1-0.6,2.2-0.5,3.6c0,0.5,0.1,0.9,0.2,1.4c0.2,0.8,0.5,1.6,0.9,2.3
	c0.1,0.2,0.2,0.4,0.3,0.5c0.2,0.3,0.5,0.7,0.8,1c0.2,0.2,0.3,0.3,0.5,0.5c0.3,0.3,0.6,0.6,1,0.8c0.3,0.2,0.6,0.4,0.9,0.5
	c0.7,0.4,1.4,0.7,2.1,0.9c0,0,0.1,0,0.1,0c1.1,0.3,2.1,0.3,3.2,0.1c1.9-0.4,3.7-0.9,5.4-1.5c0.5-0.2,5.8-1.5,6.2-1.7h0L212.7,312.4
	L212.7,312.4z M247.7,318l-2.5-2.3l-2.1-1.9c-1.5,1.4-2.8,2.4-3.7,3.1c-0.4,0.3-0.9,0.6-1.3,0.9c-0.5,0.3-0.9,0.5-1.3,0.6
	c-0.2,0.1-0.5,0.2-0.7,0.3c-0.1,0-0.1,0-0.2,0c-0.2,0.1-0.4,0.1-0.5,0.1c-0.1,0-0.2,0-0.3,0.1c-0.1,0-0.2,0-0.4,0.1
	c-1.2,0.1-2.2,0-3.3-0.5c-1.6-0.7-2.8-2.1-3.6-4.2c-0.7-1.7-0.8-3.2-0.5-4.6c0.1-0.3,0.2-0.7,0.3-1c0.2-0.4,0.4-0.8,0.6-1.1
	c0.7-1.1,1.8-2,3.2-2.5c0.4-0.2,0.8-0.3,1.2-0.4c0.4-0.1,0.9-0.2,1.5-0.3c0.7-0.1,1.4-0.1,2.1-0.2c0.9,0,1.9-0.1,2.8,0l0.4-6.1
	c-2-0.1-3.9,0-5.9,0.2c-1.9,0.2-3.4,0.5-4.6,1c-1.8,0.7-3.4,1.7-4.7,2.9c-1.3,1.2-2.3,2.6-3,4.2c-0.7,1.6-1,3.3-1.1,5.1
	c0,0.1,0,0.1,0,0.2c0,0.6,0.1,1.2,0.1,1.7c0.2,1.2,0.5,2.4,0.9,3.6c0.7,1.8,1.7,3.3,2.9,4.6c0.1,0.1,0.3,0.3,0.4,0.4
	c1.1,1.1,2.4,1.9,3.7,2.4c0.8,0.3,1.6,0.6,2.5,0.7c0.8,0.2,1.7,0.2,2.6,0.2c0.1,0,0.2,0,0.3,0c1.7-0.1,3.5-0.4,5.3-1.1
	c0.6-0.2,1.2-0.5,2-0.9s1.5-0.9,2.3-1.4c0.5-0.3,0.9-0.7,1.4-1l0,0c0.3-0.3,0.7-0.5,1-0.8C246.3,319.4,247,318.7,247.7,318
	 M260,305.8c-0.9,0.1-1.7,0.1-2.6-0.1c-0.9-0.2-1.7-0.6-2.4-1.1c-0.4-0.3-0.8-0.6-1.1-1c-0.4-0.4-0.7-0.8-0.9-1.2
	c-0.4-0.5-0.7-1.1-0.9-1.7c-0.4-1-0.6-2-0.5-3.1c0-0.2,0-0.4,0.1-0.7c0.1-0.9,0.4-1.7,0.9-2.5c0.5-0.8,1.1-1.4,1.8-1.9
	c0.8-0.5,1.6-0.9,2.5-1c0.9-0.1,1.7-0.1,2.6,0.1c0.9,0.2,1.7,0.6,2.5,1.2c0.8,0.6,1.5,1.3,2,2.2c0.6,0.9,1,1.8,1.2,2.7
	c0.1,0.5,0.2,0.9,0.2,1.4c0,0.4,0,0.9-0.1,1.3c-0.1,0.9-0.4,1.7-0.9,2.4c-0.5,0.7-1.1,1.4-1.9,1.9
	C261.8,305.3,260.9,305.6,260,305.8 M271.9,296.1c-0.3-1.8-1-3.4-2.1-5c-1.1-1.6-2.4-2.9-3.9-3.9c-1.4-0.9-3.1-1.6-4.8-2
	c-1.7-0.3-3.4-0.3-5.2,0.1c-1.8,0.4-3.5,1.1-5.1,2.2c-1.5,1-2.9,2.3-3.9,3.8c-0.2,0.3-0.4,0.6-0.5,0.9c-0.7,1.2-1.2,2.5-1.5,3.9
	c-0.2,0.8-0.3,1.7-0.3,2.6c0,0.9,0.1,1.7,0.2,2.6c0,0.2,0.1,0.3,0.1,0.5c0.4,1.6,1,3.1,2,4.6c0.6,0.8,1.2,1.6,1.9,2.3
	c0.6,0.6,1.2,1.1,1.9,1.5c1.5,1,3.1,1.6,4.8,1.9c1.7,0.3,3.4,0.3,5.1,0l0,0c0,0,0,0,0.1,0c1.8-0.3,3.4-1.1,5-2.1
	c1.6-1.1,2.9-2.4,3.9-3.9c0,0,0,0,0-0.1c1-1.5,1.7-3.1,2-4.7c0.2-0.8,0.3-1.7,0.3-2.5C272.2,297.9,272.1,297,271.9,296.1
	 M291.7,258.8c1.3,0,2.6,0.6,4.1,1.8l11,8.9c1.4-1.8,2.7-3.7,4-5.6l-11.4-9.3c-2.9-2.4-5.7-3.3-8.3-3c-2.6,0.4-5,1.8-7,4.3
	c-0.9,1.1-1.6,2.2-2.3,3.4c-0.6,1.1-1.1,2.2-1.5,3.3l0.1,0.1l-3.8,2.9l19.7,16c1.6-1.7,3.1-3.4,4.6-5.1l-14.8-12
	c0.3-1.3,1.1-2.8,2.5-4.5C289.4,259.3,290.4,258.8,291.7,258.8 M266.5,277.3l17.6,17.2c1.6-1.6,3.3-3.3,4.8-4.9l-19.7-19.2
	L266.5,277.3L266.5,277.3z M266.5,267.8c0.1,2.5-1.8,4.6-4.3,4.8c-2.5,0.1-4.6-1.8-4.8-4.3c0-0.1,0-0.1,0-0.2c0-2.5,2-4.6,4.5-4.6
	C264.3,263.5,266.3,265.4,266.5,267.8"/>
<path d="M193,248.6c-49.3,8.2-78.4-21.1-85.1-33.3c-6.7-12.3-5.1-21.7-7.9-27.9c-3.3-7.3,4.6-10.5,7.6-8.4c3,2.1,0.8,4.3,5,6.9
	c10.1,6.4,37.8,29.8,72.6,18.7c36.5-11.6,39.7-26.2,41.2-42.5c1.2-12.9,8.4-17,10.9-18.1l-2-21.7l15.6,4.7l-2.7,19.1
	c0,0.1,0,0.2,0,0.2s15.7,9.2,12.1,34.8C257.2,202,242.3,240.4,193,248.6 M180.8,75.3c-58.2,0-105.4,47.2-105.4,105.4
	c0,58.2,47.2,105.4,105.4,105.4c58.2,0,105.4-47.2,105.4-105.4C286.2,122.5,239,75.3,180.8,75.3"/>
</svg>
