<?xml version="1.0" encoding="utf-8"?>
<!-- Generator: Adobe Illustrator 21.1.0, SVG Export Plug-In . SVG Version: 6.00 Build 0)  -->
<svg version="1.1" id="Слой_1" xmlns="http://www.w3.org/2000/svg" xmlns:xlink="http://www.w3.org/1999/xlink" x="0px" y="0px"
	 viewBox="0 0 218 44" style="enable-background:new 0 0 218 44;" xml:space="preserve">
<style type="text/css">
	.st0{fill:#8C8C8C;}
</style>
<path class="st0" d="M165.8,23.5c-0.4,0.5-1,0.7-1.6,0.7c-0.6,0-1.2-0.3-1.6-0.8s-0.6-1.2-0.6-2c0-0.7,0.2-1.4,0.6-1.9
	s0.9-0.8,1.6-0.8c0.7,0,1.2,0.3,1.6,0.7c0.4,0.5,0.6,1.2,0.6,2S166.2,23,165.8,23.5z M166.2,18.2c-0.7-0.8-1.5-1.2-2.5-1.2
	c-1.1,0-2,0.4-2.7,1.3c-0.7,0.9-1.1,1.9-1.1,3.2c0,1.3,0.4,2.4,1.1,3.2c0.7,0.9,1.6,1.3,2.7,1.3c0.9,0,1.7-0.4,2.4-1.1v0.9h1.8v-8.6
	h-1.8V18.2z"/>
<path class="st0" d="M176.7,23.2c-0.4,0.5-1,0.8-1.7,0.8s-1.2-0.3-1.6-0.8c-0.3-0.5-0.6-1.1-0.6-1.8c0-0.8,0.2-1.4,0.6-1.9
	c0.4-0.5,0.9-0.8,1.6-0.8c0.7,0,1.2,0.3,1.6,0.7c0.4,0.5,0.6,1.1,0.6,1.9C177.2,22.1,177,22.7,176.7,23.2z M177.2,18.2
	c-0.7-0.8-1.5-1.2-2.5-1.2c-1.1,0-2,0.4-2.7,1.3c-0.7,0.8-1,1.9-1,3.1c0,1.2,0.3,2.3,1,3.1c0.7,0.8,1.6,1.2,2.7,1.2
	c0.9,0,1.8-0.4,2.5-1.2v1.2c0,1.7-0.7,2.6-2,2.6c-0.7,0-1.3-0.3-1.7-0.8c-0.2-0.2-0.3-0.5-0.3-0.9h-1.8c0.1,1.1,0.5,1.9,1.2,2.5
	c0.7,0.6,1.6,0.9,2.6,0.9c1.2,0,2.2-0.4,2.9-1.3c0.4-0.4,0.6-1,0.8-1.6c0-0.2,0-0.5,0.1-0.8c0-0.3,0-0.6,0-1v-8.2h-1.7L177.2,18.2
	L177.2,18.2z"/>
<path class="st0" d="M183.4,19.8c0.1-0.2,0.3-0.4,0.4-0.5c0.2-0.1,0.4-0.3,0.5-0.3c0.2-0.1,0.4,0,0.7,0c1,0,1.7,0.5,1.9,1.6h-3.8
	C183.1,20.2,183.2,20,183.4,19.8z M186.3,23.9c-0.3,0.2-0.7,0.3-1.2,0.3c-0.6,0-1.1-0.2-1.5-0.6c-0.4-0.4-0.6-0.9-0.7-1.6h5.9v-0.5
	c0-1.4-0.4-2.5-1-3.3c-0.7-0.8-1.7-1.2-2.9-1.2c-1.2,0-2.2,0.4-2.9,1.2s-1.1,1.9-1.1,3.3s0.4,2.5,1.1,3.3c0.8,0.8,1.7,1.2,3,1.2
	c0.4,0,0.8,0,1.2-0.1c0.4-0.1,0.7-0.2,1-0.4c0.3-0.2,0.6-0.4,0.9-0.8c0.3-0.3,0.5-0.7,0.8-1.1l-1.6-0.9
	C187,23.2,186.6,23.7,186.3,23.9z"/>
<polygon class="st0" points="138.9,28.3 128.7,0 118.2,28.4 113,14.7 118.3,1.8 112,1.8 109.9,6.7 108,1.8 101.7,1.8 106.7,14.7 
	101.2,28.3 91.1,0 80.5,28.3 70.4,1.8 64,1.8 80.5,43.9 90.9,15.9 101,44 109.8,22.6 118.2,44 128.6,16 138.6,43.9 156,1.8 
	149.6,1.8 "/>
<path class="st0" d="M18.4,19.8c0.1-0.2,0.3-0.4,0.4-0.5c0.2-0.1,0.4-0.3,0.5-0.3c0.2-0.1,0.4,0,0.7,0c1,0,1.7,0.5,1.9,1.6h-3.8
	C18.2,20.2,18.2,20,18.4,19.8z M21.3,23.9c-0.3,0.2-0.7,0.3-1.2,0.3c-0.6,0-1.1-0.2-1.5-0.6C18.2,23.2,18,22.7,18,22h5.9v-0.5
	c0-1.4-0.4-2.5-1-3.3C22.2,17.4,21.2,17,20,17c-1.2,0-2.2,0.4-2.9,1.2S16,20.2,16,21.5s0.4,2.5,1.1,3.3s1.7,1.2,3,1.2
	c0.4,0,0.8,0,1.2-0.1c0.4-0.1,0.7-0.2,1-0.4c0.3-0.2,0.6-0.4,0.9-0.8c0.3-0.3,0.5-0.7,0.8-1.1l-1.6-0.9C22,23.2,21.6,23.7,21.3,23.9
	z"/>
<path class="st0" d="M31.2,23.5c-0.5,0.5-1.1,0.7-1.8,0.7c-0.7,0-1.3-0.3-1.7-0.8c-0.5-0.5-0.7-1.2-0.7-2c0-0.7,0.2-1.4,0.7-1.9
	c0.5-0.5,1-0.8,1.7-0.8c0.7,0,1.3,0.3,1.8,0.7c0.5,0.5,0.7,1.2,0.7,2S31.6,23,31.2,23.5z M31.7,18.2C30.9,17.4,30,17,29,17
	c-1.2,0-2.1,0.4-2.9,1.3c-0.8,0.9-1.1,1.9-1.1,3.2c0,1.3,0.4,2.4,1.2,3.2c0.8,0.9,1.7,1.3,2.9,1.3c1,0,1.9-0.4,2.6-1.1v0.9H34v-8.6
	h-2.3L31.7,18.2L31.7,18.2z"/>
<path class="st0" d="M55.4,19.8c0.1-0.2,0.3-0.4,0.4-0.5c0.2-0.1,0.4-0.3,0.5-0.3c0.2-0.1,0.4,0,0.7,0c1,0,1.7,0.5,1.9,1.6h-3.8
	C55.2,20.2,55.2,20,55.4,19.8z M58.3,23.9c-0.3,0.2-0.7,0.3-1.2,0.3c-0.6,0-1.1-0.2-1.5-0.6C55.2,23.2,55,22.7,55,22h5.9v-0.5
	c0-1.4-0.4-2.5-1-3.3C59.2,17.4,58.2,17,57,17c-1.2,0-2.2,0.4-2.9,1.2S53,20.2,53,21.5s0.4,2.5,1.1,3.3c0.8,0.8,1.7,1.2,3,1.2
	c0.4,0,0.8,0,1.2-0.1c0.4-0.1,0.7-0.2,1-0.4c0.3-0.2,0.6-0.4,0.9-0.8c0.3-0.3,0.5-0.7,0.8-1.1l-1.6-0.9C59,23.2,58.6,23.7,58.3,23.9
	z"/>
<path class="st0" d="M195.2,17c-0.8,0-1.4,0.3-2.1,0.9v-0.8H191V25h2.1v-3.7c0-1,0.1-1.6,0.3-2s0.7-0.6,1.3-0.6c0.6,0,1,0.1,1.2,0.4
	c0.2,0.3,0.3,0.8,0.3,1.6V25h1.8v-4.8c0-1.1-0.2-1.9-0.6-2.4C196.9,17.3,196.2,17,195.2,17z"/>
<path class="st0" d="M201.4,18.4c-0.9,0.9-1.4,1.9-1.4,3.2s0.5,2.3,1.4,3.2c0.9,0.9,1.9,1.3,3.3,1.3c0.8,0,1.6-0.2,2.3-0.6v-2.6
	c-0.4,0.6-0.8,1-1.2,1.1c-0.4,0.2-0.8,0.3-1.2,0.3c-0.8,0-1.4-0.3-1.8-0.8c-0.5-0.5-0.7-1.1-0.7-2c0-0.8,0.3-1.4,0.8-1.9
	c0.5-0.5,1.1-0.8,1.9-0.8c0.5,0,0.8,0.1,1.2,0.3c0.4,0.2,0.8,0.6,1.1,1.1v-2.6c-0.8-0.4-1.5-0.6-2.3-0.6
	C203.3,17.1,202.3,17.5,201.4,18.4z"/>
<polygon class="st0" points="214.9,17 212.6,21.9 210.2,17 208,17 211.6,23.9 208.5,30 210.6,30 217,17 "/>
<path class="st0" d="M2.3,18.4C1.4,19.2,1,20.3,1,21.6s0.4,2.3,1.3,3.2s2,1.3,3.3,1.3c0.8,0,1.6-0.2,2.4-0.6v-2.6
	c-0.4,0.6-0.9,1-1.2,1.1c-0.4,0.2-0.8,0.3-1.2,0.3c-0.7,0-1.3-0.3-1.8-0.8c-0.5-0.5-0.7-1.1-0.7-2c0-0.8,0.3-1.4,0.7-1.9
	c0.5-0.5,1.1-0.8,1.8-0.8c0.5,0,0.9,0.1,1.2,0.3c0.4,0.2,0.8,0.6,1.2,1.1v-2.6C7.3,17.2,6.5,17,5.7,17C4.3,17.1,3.2,17.5,2.3,18.4z"
	/>
<path class="st0" d="M12.6,17.2c-0.3,0.1-0.6,0.4-0.9,0.7v-0.7H10V25h1.7v-4.1c0-1.5,0.6-2.2,1.5-2.2c0.3,0,0.7,0.1,1,0.4l0.8-1.6
	c-0.5-0.3-1-0.5-1.5-0.5C13.1,17,12.8,17.1,12.6,17.2z"/>
<polygon class="st0" points="37.7,14 35.7,14 35.7,16.8 35,16.8 35,18.6 35.7,18.6 35.7,25 37.7,25 37.7,18.6 39,18.6 39,16.8 
	37.7,16.8 "/>
<path class="st0" d="M41.7,13.7c0.2-0.2,0.3-0.4,0.3-0.7s-0.1-0.5-0.3-0.7C41.5,12.1,41.3,12,41,12c-0.3,0-0.5,0.1-0.7,0.3
	S40,12.7,40,13c0,0.3,0.1,0.5,0.3,0.7S40.7,14,41,14S41.5,13.9,41.7,13.7z"/>
<rect x="41" y="17" class="st0" width="2" height="8"/>
<polygon class="st0" points="48,21.8 46,17 44,17 48,26 52,17 50,17 "/>
</svg>
