<?xml version="1.0" encoding="utf-8"?>
<!-- Generator: Adobe Illustrator 21.1.0, SVG Export Plug-In . SVG Version: 6.00 Build 0)  -->
<svg version="1.1" id="Слой_1" xmlns="http://www.w3.org/2000/svg" xmlns:xlink="http://www.w3.org/1999/xlink" x="0px" y="0px"
	 viewBox="0 0 314 411" style="enable-background:new 0 0 314 411;" xml:space="preserve">
<style type="text/css">
	.st0{display:none;}
	.st1{display:inline;}
	.st2{clip-path:url(#SVGID_4_);}
	.st3{clip-path:url(#SVGID_6_);fill:#FFFFFF;}
	.st4{clip-path:url(#SVGID_10_);}
	.st5{clip-path:url(#SVGID_12_);fill:#FFFFFF;}
	.st6{clip-path:url(#SVGID_16_);}
	.st7{clip-path:url(#SVGID_18_);fill:#FFFFFF;}
	.st8{fill-rule:evenodd;clip-rule:evenodd;fill:#F0F4F4;}
	.st9{fill-rule:evenodd;clip-rule:evenodd;}
	.st10{fill-rule:evenodd;clip-rule:evenodd;fill:#F3D632;}
</style>
<g class="st0">
	<g class="st1">
		<g>
			<defs>
				<rect id="SVGID_1_" y="10" width="303" height="401"/>
			</defs>
			<clipPath id="SVGID_2_">
				<use xlink:href="#SVGID_1_"  style="overflow:visible;"/>
			</clipPath>
			<g style="clip-path:url(#SVGID_2_);">
				
					<image style="overflow:visible;" width="303" height="401" xlink:href="45F93BB3F907BF9A.png"  transform="matrix(1 0 0 1 0 10)">
				</image>
			</g>
		</g>
		<g>
			<defs>
				
					<rect id="SVGID_3_" x="16" y="20" transform="matrix(0.9994 -3.490125e-02 3.490125e-02 0.9994 -7.0628 5.395)" width="270" height="370"/>
			</defs>
			<clipPath id="SVGID_4_">
				<use xlink:href="#SVGID_3_"  style="overflow:visible;"/>
			</clipPath>
			<g class="st2">
				<defs>
					<rect id="SVGID_5_" x="-218" y="-2378" width="1440" height="8734"/>
				</defs>
				<clipPath id="SVGID_6_">
					<use xlink:href="#SVGID_5_"  style="overflow:visible;"/>
				</clipPath>
				
					<rect x="11" y="15" transform="matrix(0.9994 -3.489991e-02 3.489991e-02 0.9994 -7.0625 5.3948)" class="st3" width="280" height="380"/>
			</g>
		</g>
		<g>
			<defs>
				<rect id="SVGID_7_" x="4" width="310" height="405"/>
			</defs>
			<clipPath id="SVGID_8_">
				<use xlink:href="#SVGID_7_"  style="overflow:visible;"/>
			</clipPath>
			<g style="clip-path:url(#SVGID_8_);">
				
					<image style="overflow:visible;" width="310" height="405" xlink:href="45F93BB3F907BF99.png"  transform="matrix(1 0 0 1 4 0)">
				</image>
			</g>
		</g>
		<g>
			<defs>
				
					<rect id="SVGID_9_" x="-26" y="62" transform="matrix(5.233654e-02 -0.9986 0.9986 5.233654e-02 -46.0515 345.4718)" width="370" height="270"/>
			</defs>
			<clipPath id="SVGID_10_">
				<use xlink:href="#SVGID_9_"  style="overflow:visible;"/>
			</clipPath>
			<g class="st4">
				<defs>
					<rect id="SVGID_11_" x="-218" y="-2378" width="1440" height="8734"/>
				</defs>
				<clipPath id="SVGID_12_">
					<use xlink:href="#SVGID_11_"  style="overflow:visible;"/>
				</clipPath>
				
					<rect x="-31" y="57" transform="matrix(5.233502e-02 -0.9986 0.9986 5.233502e-02 -46.0513 345.4721)" class="st5" width="380" height="280"/>
			</g>
		</g>
		<g>
			<defs>
				<rect id="SVGID_13_" x="7" y="2" width="301" height="400"/>
			</defs>
			<clipPath id="SVGID_14_">
				<use xlink:href="#SVGID_13_"  style="overflow:visible;"/>
			</clipPath>
			<g style="clip-path:url(#SVGID_14_);">
				
					<image style="overflow:visible;" width="301" height="400" xlink:href="45F93BB3F907BFA5.png"  transform="matrix(1 0 0 1 7 2)">
				</image>
			</g>
		</g>
		<g>
			<defs>
				<rect id="SVGID_15_" x="22" y="12" width="270" height="370"/>
			</defs>
			<clipPath id="SVGID_16_">
				<use xlink:href="#SVGID_15_"  style="overflow:visible;"/>
			</clipPath>
			<g class="st6">
				<defs>
					<rect id="SVGID_17_" x="-218" y="-2378" width="1440" height="8734"/>
				</defs>
				<clipPath id="SVGID_18_">
					<use xlink:href="#SVGID_17_"  style="overflow:visible;"/>
				</clipPath>
				<rect x="17" y="7" class="st7" width="280" height="380"/>
			</g>
		</g>
	</g>
</g>
<g>
	<g>
		<rect x="57" y="104" class="st8" width="117" height="5"/>
		<rect x="57" y="141" class="st8" width="130" height="5"/>
		<rect x="57" y="181" class="st8" width="60" height="5"/>
		<rect x="57" y="161" class="st8" width="110" height="5"/>
		<rect x="57" y="151" class="st8" width="155" height="5"/>
		<rect x="57" y="171" class="st8" width="185" height="5"/>
		<rect x="192" y="141" class="st8" width="54" height="5"/>
		<rect x="122" y="181" class="st8" width="132" height="5"/>
		<rect x="57" y="131" class="st8" width="200" height="5"/>
		<rect x="217" y="151" class="st8" width="37" height="5"/>
	</g>
	<g>
		<path class="st9" d="M84.4,55.3c-0.3-0.3-0.6-0.5-0.9-0.6c-0.4-0.2-0.8-0.2-1.2-0.2c-0.3,0-0.6,0-0.8,0.1c-0.2,0-0.4,0.1-0.6,0.2
			v-3.3l-1.6,0.5v8.4c0.5,0.2,0.9,0.3,1.2,0.4c0.4,0.1,0.8,0.1,1.2,0.1c0.5,0,1-0.1,1.4-0.2c0.4-0.2,0.8-0.4,1.1-0.7
			c0.3-0.3,0.5-0.7,0.7-1.1c0.2-0.4,0.3-0.9,0.3-1.4c0-0.4-0.1-0.9-0.2-1.2C84.8,55.9,84.6,55.6,84.4,55.3z M83.4,58.3
			c-0.1,0.2-0.2,0.4-0.4,0.6c-0.2,0.2-0.3,0.3-0.5,0.4c-0.2,0.1-0.4,0.1-0.7,0.1c-0.1,0-0.3,0-0.4,0c-0.1,0-0.3-0.1-0.4-0.1v-2.9
			c0.2-0.2,0.4-0.3,0.6-0.4c0.2-0.1,0.4-0.1,0.6-0.1c0.4,0,0.7,0.1,0.9,0.5c0.2,0.3,0.4,0.7,0.4,1.2C83.5,57.8,83.4,58.1,83.4,58.3z
			"/>
		<path class="st9" d="M90.1,54.7c-0.2-0.1-0.4-0.2-0.7-0.3c-0.2-0.1-0.5-0.1-0.7-0.1c-0.4,0-0.8,0-1.3,0.1
			c-0.5,0.1-0.9,0.3-1.4,0.6l0.7,1.3c0.3-0.2,0.6-0.4,0.9-0.5c0.3-0.1,0.6-0.1,0.9-0.1c0.2,0,0.3,0,0.5,0.2c0.1,0.1,0.2,0.2,0.2,0.4
			v0.3c-0.4,0-0.7,0-1.1,0.1c-0.4,0.1-0.7,0.2-1,0.3s-0.6,0.4-0.8,0.7c-0.2,0.3-0.3,0.7-0.3,1.2c0,0.2,0.1,0.5,0.2,0.7
			c0.1,0.2,0.2,0.5,0.4,0.6c0.2,0.2,0.4,0.4,0.6,0.5c0.2,0.1,0.5,0.2,0.8,0.2c0.1,0,0.3,0,0.4,0c0.2,0,0.3,0,0.5,0
			c0.2,0,0.3,0,0.4-0.1s0.2,0,0.3-0.1l1.2,0.2v-4.7c0-0.4-0.1-0.7-0.2-0.9C90.5,55.1,90.3,54.9,90.1,54.7z M89.2,59.3
			c0,0-0.1,0-0.2,0.1c-0.1,0-0.2,0-0.3,0c-0.1,0-0.2,0-0.3,0c-0.1,0-0.2,0-0.3,0c-0.1,0-0.3-0.1-0.4-0.2s-0.1-0.3-0.1-0.4
			c0-0.2,0-0.3,0.1-0.5c0.1-0.1,0.2-0.2,0.4-0.3c0.1-0.1,0.3-0.1,0.5-0.1c0.2,0,0.4,0,0.6,0V59.3z"/>
		<path class="st9" d="M95.2,54.4c-0.3,0-0.7,0-1,0.1c-0.3,0.1-0.6,0.1-0.8,0.2v0l-1.1-0.4v6.4h1.6v-4.7c0.3-0.1,0.7-0.2,1.2-0.2
			c0.3,0,0.5,0.1,0.7,0.4c0.2,0.2,0.3,0.6,0.3,1v3.5h1.6v-3.7c0-0.9-0.2-1.6-0.7-2C96.6,54.6,96,54.4,95.2,54.4z"/>
		<path class="st9" d="M102.9,54.7c-0.2-0.1-0.4-0.2-0.7-0.3c-0.2-0.1-0.5-0.1-0.7-0.1c-0.4,0-0.8,0-1.3,0.1
			c-0.5,0.1-0.9,0.3-1.4,0.6l0.7,1.3c0.3-0.2,0.6-0.4,0.9-0.5c0.3-0.1,0.6-0.1,0.9-0.1c0.2,0,0.3,0,0.5,0.2c0.1,0.1,0.2,0.2,0.2,0.4
			v0.3c-0.4,0-0.7,0-1.1,0.1c-0.4,0.1-0.7,0.2-1,0.3s-0.6,0.4-0.8,0.7c-0.2,0.3-0.3,0.7-0.3,1.2c0,0.2,0.1,0.5,0.2,0.7
			c0.1,0.2,0.2,0.5,0.4,0.6c0.2,0.2,0.4,0.4,0.6,0.5c0.2,0.1,0.5,0.2,0.8,0.2c0.1,0,0.3,0,0.4,0c0.2,0,0.3,0,0.5,0
			c0.2,0,0.3,0,0.4-0.1s0.2,0,0.3-0.1l1.2,0.2v-4.7c0-0.4-0.1-0.7-0.2-0.9C103.3,55.1,103.1,54.9,102.9,54.7z M102,59.3
			c0,0-0.1,0-0.2,0.1c-0.1,0-0.2,0-0.3,0c-0.1,0-0.2,0-0.3,0c-0.1,0-0.2,0-0.3,0c-0.1,0-0.3-0.1-0.4-0.2c-0.1-0.1-0.1-0.3-0.1-0.4
			c0-0.2,0-0.3,0.1-0.5s0.2-0.2,0.4-0.3c0.1-0.1,0.3-0.1,0.5-0.1c0.2,0,0.4,0,0.6,0V59.3z"/>
		<path class="st9" d="M107.9,54.4c-0.3,0-0.7,0-1,0.1c-0.3,0.1-0.6,0.1-0.8,0.2v0l-1.1-0.4v6.4h1.6v-4.7c0.3-0.1,0.7-0.2,1.2-0.2
			c0.3,0,0.5,0.1,0.7,0.4c0.2,0.2,0.3,0.6,0.3,1v3.5h1.6v-3.7c0-0.9-0.2-1.6-0.7-2C109.3,54.6,108.7,54.4,107.9,54.4z"/>
		<path class="st9" d="M115.6,54.7c-0.2-0.1-0.4-0.2-0.7-0.3c-0.2-0.1-0.5-0.1-0.7-0.1c-0.4,0-0.8,0-1.3,0.1
			c-0.5,0.1-0.9,0.3-1.4,0.6l0.7,1.3c0.3-0.2,0.6-0.4,0.9-0.5c0.3-0.1,0.6-0.1,0.9-0.1c0.2,0,0.3,0,0.5,0.2c0.1,0.1,0.2,0.2,0.2,0.4
			v0.3c-0.4,0-0.7,0-1.1,0.1c-0.4,0.1-0.7,0.2-1,0.3c-0.3,0.2-0.6,0.4-0.8,0.7c-0.2,0.3-0.3,0.7-0.3,1.2c0,0.2,0.1,0.5,0.2,0.7
			c0.1,0.2,0.2,0.5,0.4,0.6c0.2,0.2,0.4,0.4,0.6,0.5c0.2,0.1,0.5,0.2,0.8,0.2c0.1,0,0.3,0,0.4,0c0.2,0,0.3,0,0.5,0
			c0.2,0,0.3,0,0.4-0.1s0.2,0,0.3-0.1l1.2,0.2v-4.7c0-0.4-0.1-0.7-0.2-0.9C116,55.1,115.9,54.9,115.6,54.7z M114.7,59.3
			c0,0-0.1,0-0.2,0.1c-0.1,0-0.2,0-0.3,0c-0.1,0-0.2,0-0.3,0c-0.1,0-0.2,0-0.3,0c-0.1,0-0.3-0.1-0.4-0.2s-0.1-0.3-0.1-0.4
			c0-0.2,0-0.3,0.1-0.5c0.1-0.1,0.2-0.2,0.4-0.3c0.1-0.1,0.3-0.1,0.5-0.1s0.4,0,0.6,0V59.3z"/>
		<path class="st9" d="M121.4,59.3c-0.3,0.1-0.5,0.1-0.7,0.1c-0.5,0-0.9-0.2-1.2-0.5c-0.3-0.3-0.4-0.7-0.4-1.3c0-0.5,0.1-1,0.4-1.3
			c0.3-0.3,0.7-0.5,1.2-0.5c0.1,0,0.2,0,0.3,0c0.1,0,0.2,0,0.4,0.1c0.1,0,0.3,0.1,0.5,0.1c0.2,0.1,0.4,0.1,0.6,0.2l0.6-1.3
			c-0.4-0.2-0.9-0.4-1.3-0.5c-0.4-0.1-0.8-0.2-1.1-0.2c-0.5,0-0.9,0.1-1.3,0.2c-0.4,0.2-0.8,0.4-1,0.7c-0.3,0.3-0.5,0.6-0.7,1
			c-0.2,0.4-0.2,0.9-0.2,1.3c0,0.5,0.1,0.9,0.2,1.3c0.2,0.4,0.4,0.7,0.7,1c0.3,0.3,0.6,0.5,1,0.7c0.4,0.2,0.9,0.2,1.3,0.2
			c0.2,0,0.3,0,0.5,0c0.2,0,0.4-0.1,0.6-0.1c0.2-0.1,0.5-0.1,0.7-0.2c0.2-0.1,0.5-0.2,0.7-0.3l-0.7-1.3
			C122.1,59.1,121.7,59.2,121.4,59.3z"/>
		<path class="st9" d="M129,55.4c-0.3-0.3-0.6-0.5-1-0.7c-0.4-0.2-0.8-0.2-1.3-0.2c-0.5,0-0.9,0.1-1.3,0.2c-0.4,0.2-0.7,0.4-1,0.7
			c-0.3,0.3-0.5,0.6-0.7,1c-0.2,0.4-0.3,0.8-0.3,1.3c0,0.5,0.1,0.9,0.3,1.3c0.2,0.4,0.4,0.7,0.7,1c0.3,0.3,0.6,0.5,1,0.7
			s0.8,0.2,1.3,0.2c0.5,0,0.9-0.1,1.3-0.2s0.8-0.4,1-0.7c0.3-0.3,0.5-0.6,0.7-1c0.2-0.4,0.3-0.8,0.3-1.3c0-0.5-0.1-0.9-0.3-1.3
			C129.5,56,129.3,55.7,129,55.4z M128.1,58.4c-0.1,0.2-0.2,0.4-0.3,0.6c-0.1,0.2-0.3,0.3-0.5,0.4c-0.2,0.1-0.4,0.1-0.6,0.1
			c-0.2,0-0.4,0-0.6-0.1c-0.2-0.1-0.4-0.2-0.5-0.4c-0.1-0.2-0.3-0.3-0.3-0.6c-0.1-0.2-0.1-0.4-0.1-0.7s0-0.5,0.1-0.7
			c0.1-0.2,0.2-0.4,0.3-0.6c0.1-0.2,0.3-0.3,0.5-0.4c0.2-0.1,0.4-0.1,0.6-0.1c0.2,0,0.4,0,0.6,0.1c0.2,0.1,0.4,0.2,0.5,0.4
			c0.1,0.2,0.3,0.3,0.3,0.6c0.1,0.2,0.1,0.4,0.1,0.7S128.2,58.2,128.1,58.4z"/>
		<path class="st9" d="M138.5,55.1c-0.5-0.4-1.1-0.7-1.9-0.7c-0.3,0-0.7,0-1,0.1c-0.3,0.1-0.6,0.1-0.8,0.2v0l-1.1-0.4v6.4h1.6v-4.7
			c0.3-0.1,0.7-0.2,1.2-0.2c0.3,0,0.5,0.1,0.7,0.4c0.2,0.2,0.3,0.6,0.3,1v3.5h1.6v-3.7C139.2,56.2,138.9,55.5,138.5,55.1z"/>
		<polygon class="st9" points="130.7,60.8 132.4,60.8 132.4,54.3 130.7,54.8 		"/>
		<ellipse transform="matrix(0.6831 -0.7303 0.7303 0.6831 3.1086 112.8241)" class="st9" cx="131.6" cy="52.8" rx="1" ry="1"/>
	</g>
	<path class="st10" d="M76.2,57.6c0,5.3-4.3,9.6-9.6,9.6c-5.3,0-9.6-4.3-9.6-9.6c0-5.3,4.3-9.6,9.6-9.6C71.9,48,76.2,52.3,76.2,57.6
		"/>
	<path class="st9" d="M66.6,50.2c-4.1,0-7.4,3.3-7.4,7.4c0,4.1,3.3,7.4,7.4,7.4c4.1,0,7.4-3.3,7.4-7.4C74,53.5,70.7,50.2,66.6,50.2
		 M67.4,62.3c-3.4,0.6-5.5-1.5-6-2.3c-0.5-0.9-0.4-1.5-0.6-1.9c-0.2-0.5,0.3-0.7,0.5-0.6c0.2,0.1,0.1,0.3,0.3,0.5
		c0.7,0.5,2.6,2.1,5.1,1.3c2.6-0.8,2.8-1.8,2.9-3c0.1-0.9,0.6-1.2,0.8-1.3l-0.1-1.5l1.1,0.3l-0.2,1.3c0,0,0,0,0,0s1.1,0.6,0.8,2.4
		C71.9,59,70.9,61.7,67.4,62.3"/>
</g>
</svg>
