<?xml version="1.0" encoding="utf-8"?>
<!-- Generator: Adobe Illustrator 21.1.0, SVG Export Plug-In . SVG Version: 6.00 Build 0)  -->
<svg version="1.1" id="Слой_1" xmlns="http://www.w3.org/2000/svg" xmlns:xlink="http://www.w3.org/1999/xlink" x="0px" y="0px"
	 viewBox="0 0 30 30" style="enable-background:new 0 0 30 30;" xml:space="preserve">
<style type="text/css">
	.st0{fill:#FFFFFF;}
</style>
<g>
	<polygon class="st0" points="12.3,15.9 13.5,15.9 12.9,14.2 	"/>
	<path class="st0" d="M15,7.3c-5.5,0-10,3.5-10,7.9c0,2.8,1.9,5.3,4.7,6.7c-0.2,0.5-1,3.4-1,3.6c0,0,0,0.2,0.1,0.2
		c0.1,0.1,0.2,0,0.2,0c0.3,0,3.6-2.4,4.2-2.8C13.8,23,14.4,23,15,23c5.5,0,10-3.5,10-7.9C25,10.8,20.5,7.3,15,7.3z M10,17.4
		c0,0.3-0.3,0.6-0.6,0.6c-0.3,0-0.6-0.2-0.6-0.6v-3.4H8c-0.3,0-0.6-0.3-0.6-0.6s0.3-0.6,0.6-0.6h3c0.3,0,0.6,0.3,0.6,0.6
		s-0.3,0.6-0.6,0.6H10V17.4z M14.9,17.8c-0.1,0.1-0.2,0.1-0.4,0.1v0c-0.2,0-0.4-0.1-0.5-0.3l-0.3-0.7l-1.8,0l-0.3,0.7
		c-0.1,0.2-0.2,0.3-0.5,0.3c-0.1,0-0.3,0-0.4-0.1c-0.2-0.1-0.3-0.3-0.1-0.8l1.4-3.6c0.1-0.3,0.4-0.6,0.8-0.6c0.4,0,0.7,0.3,0.8,0.6
		L15,17C15.2,17.5,15.1,17.7,14.9,17.8z M17.8,17.8H16c-0.3,0-0.6-0.2-0.6-0.5v-3.9c0-0.3,0.3-0.6,0.6-0.6c0.3,0,0.6,0.3,0.6,0.6
		v3.4h1.2c0.3,0,0.6,0.2,0.6,0.5S18.1,17.8,17.8,17.8z M22.3,17.4c0,0.2-0.1,0.3-0.2,0.4c-0.1,0.1-0.2,0.1-0.3,0.1
		c-0.2,0-0.4-0.1-0.5-0.2l-1.4-1.8l-0.2,0.2v1.3c0,0.3-0.3,0.6-0.6,0.6v0c-0.3,0-0.6-0.3-0.6-0.6v-3.9c0-0.3,0.3-0.6,0.6-0.6
		s0.6,0.3,0.6,0.6v1.2l1.6-1.6c0.1-0.1,0.2-0.1,0.3-0.1c0.1,0,0.3,0.1,0.4,0.2c0.1,0.1,0.2,0.2,0.2,0.4c0,0.1,0,0.3-0.1,0.4
		l-1.3,1.3l1.4,1.9C22.3,17.1,22.4,17.2,22.3,17.4z"/>
</g>
</svg>
