<?xml version="1.0" encoding="utf-8"?>
<svg version="1.1" xmlns="http://www.w3.org/2000/svg" xmlns:xlink="http://www.w3.org/1999/xlink" x="0px" y="0px"
	 viewBox="0 0 63 63" style="enable-background:new 0 0 63 63;" xml:space="preserve">
<path fill="#FED800" d="M63,31.5C63,48.9,48.9,63,31.5,63S0,48.9,0,31.5S14.1,0,31.5,0S63,14.1,63,31.5"/>
<path d="M34.3,47.3c-11.5,1.9-18.2-4.9-19.8-7.7c-1.6-2.9-1.2-5.1-1.8-6.5c-0.8-1.7,1.1-2.4,1.8-2c0.7,0.5,0.2,1,1.2,1.6
	c2.4,1.5,8.8,6.9,16.9,4.3c8.5-2.7,9.2-6.1,9.6-9.9c0.3-3,1.9-4,2.5-4.2l-0.5-5l3.6,1.1l-0.6,4.4l0,0.1c0,0,3.6,2.1,2.8,8.1
	C49.3,36.4,45.8,45.4,34.3,47.3 M31.5,7C18,7,7,18,7,31.5C7,45,18,56,31.5,56S56,45,56,31.5C56,18,45,7,31.5,7"/>
</svg>
