<?xml version="1.0" encoding="utf-8"?>
<!-- Generator: Adobe Illustrator 21.1.0, SVG Export Plug-In . SVG Version: 6.00 Build 0)  -->
<svg version="1.1" id="Слой_1" xmlns="http://www.w3.org/2000/svg" xmlns:xlink="http://www.w3.org/1999/xlink" x="0px" y="0px"
	 viewBox="0 0 60 60" style="enable-background:new 0 0 60 60;" xml:space="preserve">
<style type="text/css">
	.st0{opacity:0.9;fill-rule:evenodd;clip-rule:evenodd;fill:#FFFFFF;}
</style>
<polygon class="st0" points="14.8,34.7 11.1,38.1 10.7,33.1 6.3,30.7 11,28.8 11.9,23.8 15.2,27.6 20.1,27 17.5,31.3 19.7,35.8 "/>
<polygon class="st0" points="30,26.8 23.2,30.5 24.6,22.9 19,17.6 26.7,16.5 30,9.6 33.3,16.5 41,17.6 35.4,22.9 36.8,30.5 "/>
<polygon class="st0" points="45.5,34.7 49.1,38.1 49.6,33.1 54,30.7 49.3,28.8 48.4,23.8 45.1,27.6 40.2,27 42.8,31.3 40.6,35.8 "/>
</svg>
