<?xml version="1.0" encoding="utf-8"?>
<!-- Generator: Adobe Illustrator 21.1.0, SVG Export Plug-In . SVG Version: 6.00 Build 0)  -->
<svg version="1.1" id="Слой_1" xmlns="http://www.w3.org/2000/svg" xmlns:xlink="http://www.w3.org/1999/xlink" x="0px" y="0px"
	 viewBox="0 0 60 60" style="enable-background:new 0 0 60 60;" xml:space="preserve">
<style type="text/css">
	.st0{opacity:0.9;fill-rule:evenodd;clip-rule:evenodd;fill:#FFFFFF;}
</style>
<g>
	<path class="st0" d="M35.7,28.7l1.9-1l-0.8-4l1.5,3.7l1.3-0.7v-4.8l0.7,4.4l3.8-2v-3.3l0.7,3l7.2-3.8c0,0-6-5.1-14.1-1.2
		c-2.6,1.2-4.3,3-5.4,4.8c0.3-2.2,0.1-4.9-1.6-7.7c-4.2-6.8-11.1-6-11.1-6l2,3.6h3.2l-2.9,0.6l1.3,2.4l3.4-1.1l-3,1.8l3.2,5.7
		c-0.8-0.8-1.8-1.5-3.1-2.1c-7.2-3.4-12.5,1.1-12.5,1.1l3.1,1.6l3.3-1.7l-2.2,2.2l3.4,1.8l1.5-3.1l-0.7,3.5l3.3,1.7
		c-1.5,0-3.2,0.3-5,1.1C10.9,32.6,11,39.6,11,39.6l4.1-1.8v-3.2l0.6,3l3.2-1.4l0.7-4.3v4l3.4-1.4l-0.6-2.6l1.2,2.4l5.7-2.4L28,61
		h4.5l-0.9-29.4l4.8,3.8l2.9-1.9l-2.2,2.5l3.1,2.4l2.1-2.8l-1.3,3.3l5.5,4.3c0,0,2-7.5-4.5-12.1C39.7,29.5,37.6,28.9,35.7,28.7z"/>
</g>
</svg>
