<?xml version="1.0" encoding="utf-8"?>
<!-- Generator: Adobe Illustrator 21.1.0, SVG Export Plug-In . SVG Version: 6.00 Build 0)  -->
<svg version="1.1" id="Слой_1" xmlns="http://www.w3.org/2000/svg" xmlns:xlink="http://www.w3.org/1999/xlink" x="0px" y="0px"
	 viewBox="0 0 60 60" style="enable-background:new 0 0 60 60;" xml:space="preserve">
<style type="text/css">
	.st0{opacity:0.9;fill-rule:evenodd;clip-rule:evenodd;fill:#FFFFFF;}
</style>
<path class="st0" d="M27.6,27.1c0,0.2,0.1,0.4,0.2,0.6c0.1,0.2,0.4,0.4,0.9,0.6v-2.5c-0.3,0-0.6,0.2-0.8,0.4
	C27.7,26.5,27.6,26.8,27.6,27.1z"/>
<path class="st0" d="M31.3,31.9l0,2.8c0.3,0,0.6-0.2,0.8-0.4c0.2-0.3,0.3-0.6,0.3-1c0-0.3-0.1-0.6-0.3-0.8
	C32,32.3,31.7,32.1,31.3,31.9z"/>
<path class="st0" d="M48,29.2l-0.5-1.7l0-1.7l-0.8-1.5l-0.3-1.7l-1.1-1.3l-0.6-1.6l-1.3-1.1L42.4,17l-1.5-0.8l-1.2-1.3l-1.6-0.5
	l-1.4-1L35,13.1l-1.6-0.8l-1.7,0.1L30,12l-1.7,0.4l-1.7-0.1L25,13.1l-1.7,0.2l-1.4,1l-1.6,0.5l-1.2,1.3L17.6,17l-0.9,1.5l-1.3,1.1
	l-0.6,1.6l-1.1,1.3l-0.3,1.7l-0.8,1.5l0,1.7L12,29.2l0.4,1.7l-0.2,1.7l0.7,1.6l0.1,1.7l1,1.4l0.5,1.7l1.2,1.2l0.8,1.6l1.4,1l1,1.4
	l1.6,0.7l1.3,1.2l1.7,0.4l1.5,0.9l1.7,0l1.6,0.6l1.7-0.3l1.7,0.3l1.6-0.6l1.7,0l1.5-0.9l1.7-0.4l1.3-1.2l1.6-0.7l1-1.4l1.4-1
	l0.8-1.6l1.2-1.2l0.5-1.7l1-1.4l0.1-1.7l0.7-1.6l-0.2-1.7L48,29.2z M34.8,34.4c-0.1,0.4-0.4,0.9-0.7,1.3c-0.3,0.4-0.8,0.8-1.3,1.1
	c-0.5,0.3-1.2,0.5-2,0.5L28.7,39v-1.8c-0.8-0.1-1.5-0.3-2.1-0.6c-0.6-0.3-1.3-0.7-1.9-1.3l1.2-2.1c0.5,0.5,1,0.8,1.4,1
	c0.4,0.2,0.9,0.4,1.4,0.5V31c-0.7-0.2-1.3-0.4-1.7-0.7c-0.5-0.3-0.8-0.6-1.1-1c-0.3-0.3-0.5-0.7-0.6-1.1C25,27.8,25,27.3,25,26.9
	c0-0.3,0.1-0.7,0.2-1.1c0.1-0.4,0.4-0.8,0.7-1.1s0.7-0.7,1.3-0.9c0.5-0.3,1.2-0.4,2-0.4l2.2-1.7v1.8c0.6,0.1,1.2,0.3,1.8,0.6
	s1.1,0.7,1.5,1.1l-1.1,2c-0.1-0.1-0.3-0.3-0.5-0.4c-0.2-0.1-0.4-0.3-0.6-0.4C32.3,26.1,32,26,31.8,26c-0.2-0.1-0.4-0.1-0.6-0.1v3.4
	c1.3,0.4,2.2,0.9,2.8,1.5c0.6,0.6,1,1.5,1,2.5C35,33.5,35,33.9,34.8,34.4z"/>
</svg>
