<?xml version="1.0" encoding="utf-8"?>
<!-- Generator: Adobe Illustrator 21.1.0, SVG Export Plug-In . SVG Version: 6.00 Build 0)  -->
<svg version="1.1" id="Слой_1" xmlns="http://www.w3.org/2000/svg" xmlns:xlink="http://www.w3.org/1999/xlink" x="0px" y="0px"
	 viewBox="0 0 60 60" style="enable-background:new 0 0 60 60;" xml:space="preserve">
<style type="text/css">
	.st0{opacity:0.9;fill-rule:evenodd;clip-rule:evenodd;fill:#FFFFFF;}
</style>
<path class="st0" d="M32.7,44.9c-11.1,1.9-17.6-4.7-19.1-7.5c-1.5-2.8-1.2-4.9-1.8-6.3c-0.7-1.6,1-2.4,1.7-1.9
	c0.7,0.5,0.2,1,1.1,1.6c2.3,1.5,8.5,6.7,16.3,4.2c8.2-2.6,8.9-5.9,9.3-9.6c0.3-2.9,1.9-3.8,2.4-4.1l-0.4-4.9l3.5,1l-0.6,4.3
	c0,0,0,0.1,0,0.1s3.5,2.1,2.7,7.8C47.2,34.4,43.8,43,32.7,44.9"/>
</svg>
