<?xml version="1.0" encoding="utf-8"?>
<svg version="1.1" id="Слой_1" xmlns="http://www.w3.org/2000/svg" xmlns:xlink="http://www.w3.org/1999/xlink" x="0px" y="0px"
	 viewBox="0 0 60 60" style="enable-background:new 0 0 60 60;" xml:space="preserve">
<path fill="#FED800" d="M30,60C13.4,60,0,46.6,0,30S13.4,0,30,0s30,13.4,30,30S46.6,60,30,60z M37,31.3c0.7-0.4,1-1.3,0.5-2.1
	c-0.1-0.2-0.3-0.4-0.5-0.5l-10.6-6.2c-0.7-0.4-1.6-0.2-2.1,0.5c-0.1,0.2-0.2,0.5-0.2,0.8v12.5c0,0.8,0.7,1.5,1.5,1.5
	c0.3,0,0.5-0.1,0.8-0.2L37,31.3L37,31.3z"/>
</svg>
